<?xml version="1.0" encoding="utf-8"?>
<!-- Generator: Adobe Illustrator 16.0.0, SVG Export Plug-In . SVG Version: 6.00 Build 0)  -->
<!DOCTYPE svg PUBLIC "-//W3C//DTD SVG 1.1//EN" "http://www.w3.org/Graphics/SVG/1.1/DTD/svg11.dtd">
<svg version="1.1" id="Layer_1" xmlns="http://www.w3.org/2000/svg" xmlns:xlink="http://www.w3.org/1999/xlink" x="0px" y="0px"
	 width="32px" height="32px" viewBox="0 0 32 32" enable-background="new 0 0 32 32" xml:space="preserve">
<g id="Layer_1_1_">
	<g id="bubble">
		<path fill="#FFA500" d="M0,14c0,6.627,7.165,12,16,12c1.057,0,2.087-0.082,3.086-0.229c0.684,0.832,3.628,3.703,6.753,4.215
			C25.835,29.975,26,30,26.094,30C26.595,30,27,29.594,27,29.094c0-0.127-0.027-0.248-0.074-0.357c0,0,0.001,0,0.002,0
			C26.339,27.723,25,25.793,25,24c0-0.029-0.008-0.047-0.008-0.074C29.221,21.766,32,18.127,32,14c0-6.627-7.163-12-16-12
			C7.164,2,0,7.373,0,14z"/>
	</g>
</g>
<g id="Layer_2">
	<path fill="#FFFFFF" d="M15.531,7.5c0,0.276,0.225,0.5,0.5,0.5c5.327,0,10,2.804,10,6c0,0.275,0.225,0.5,0.5,0.5
		c0.276,0,0.5-0.225,0.5-0.5c0-3.794-5.036-7-11-7C15.756,7,15.531,7.224,15.531,7.5z"/>
</g>
</svg>
