<?xml version="1.0" encoding="utf-8"?>
<!-- Generator: Adobe Illustrator 16.0.0, SVG Export Plug-In . SVG Version: 6.00 Build 0)  -->
<!DOCTYPE svg PUBLIC "-//W3C//DTD SVG 1.1//EN" "http://www.w3.org/Graphics/SVG/1.1/DTD/svg11.dtd">
<svg version="1.1" id="Layer_1" xmlns="http://www.w3.org/2000/svg" xmlns:xlink="http://www.w3.org/1999/xlink" x="0px" y="0px"
	 width="32px" height="32px" viewBox="0 0 32 32" enable-background="new 0 0 32 32" xml:space="preserve">
<g id="bubble">
	<path fill="#333333" d="M15.5,7.5C15.5,7.776,15.725,8,16,8c5.327,0,10,2.804,10,6c0,0.276,0.224,0.5,0.5,0.5
		c0.275,0,0.5-0.224,0.5-0.5c0-3.794-5.037-7-11-7C15.724,7,15.5,7.224,15.5,7.5z"/>
	<path fill="#333333" d="M0,14c0,6.627,7.165,12,16,12c1.057,0,2.087-0.082,3.086-0.229c0.684,0.832,3.628,3.703,6.753,4.215
		C25.835,29.975,26,30,26.094,30C26.595,30,27,29.594,27,29.094c0-0.127-0.027-0.248-0.074-0.357c0,0,0.001,0,0.002,0
		C26.339,27.723,25,25.793,25,24c0-0.029-0.008-0.047-0.008-0.074C29.221,21.766,32,18.127,32,14c0-6.627-7.163-12-16-12
		C7.164,2,0,7.373,0,14z M2,14C2,8.486,8.282,4,16,4c7.72,0,14,4.486,14,10c0,3.207-2.212,6.252-5.918,8.145
		c-0.669,0.342-1.09,1.028-1.09,1.78c0,0.056,0.003,0.12,0.009,0.185c0.021,1.033,0.326,2.037,0.716,2.932
		c-1.439-0.855-2.657-2.018-3.085-2.539c-0.383-0.466-0.952-0.73-1.546-0.73c-0.096,0-0.193,0.006-0.29,0.021
		C17.857,23.93,16.917,24,16,24C8.281,24,2,19.514,2,14z"/>
</g>
</svg>
