<?xml version="1.0" standalone="no"?>
<!DOCTYPE svg PUBLIC "-//W3C//DTD SVG 1.1//EN" "http://www.w3.org/Graphics/SVG/1.1/DTD/svg11.dtd" >
<svg xmlns="http://www.w3.org/2000/svg">
<metadata>
This is a custom SVG webfont generated by Font Squirrel.
Copyright   : HTF Chronicle   2002 The Hoefler Type Foundry Inc Info wwwtypographycom
Foundry     : HTF Chronicle The Hoefler Type Foundry Inc
</metadata>
<defs>
<font id="ChronicleDChronicleDisplaySBd" horiz-adv-x="1005" >
<font-face units-per-em="2048" ascent="1638" descent="-410" />
<missing-glyph horiz-adv-x="382" />
<glyph unicode=" "  horiz-adv-x="382" />
<glyph unicode="&#x09;" horiz-adv-x="382" />
<glyph unicode="&#xa0;" horiz-adv-x="382" />
<glyph unicode="!" horiz-adv-x="573" d="M147 102q0 57 40 97.5t100 40.5q59 0 99 -40t40 -96q0 -57 -40 -97t-99 -40t-99.5 40t-40.5 95zM158 1319q0 166 129 166q61 0 96 -42t35 -124q0 -68 -14.5 -164t-33 -216t-38 -257t-29.5 -287h-33q-10 150 -28.5 287t-37 257t-32.5 216t-14 164z" />
<glyph unicode="&#x22;" horiz-adv-x="888" d="M139 891l41 231q23 115 34 169.5t24 80.5q31 70 98 70q51 0 80.5 -34t29.5 -75q0 -20 -10 -47t-39.5 -75t-95.5 -140l-135 -190zM512 891l41 231q23 115 35 169.5t22 80.5q31 70 101 70q51 0 79.5 -34t28.5 -75q0 -20 -10 -47t-39 -75t-94 -140l-135 -190z" />
<glyph unicode="#" horiz-adv-x="1441" d="M78 387v43h325l103 512h-338v43h346l90 459h53l-90 -459h430l90 459h54l-90 -459h321v-43h-330l-102 -512h344v-43h-352l-94 -473h-54l95 473h-430l-95 -473h-53l94 473h-317zM457 430h430l102 512h-430z" />
<glyph unicode="$" horiz-adv-x="1157" d="M104 322q0 25 8.5 48t26 43.5t44 33t63.5 12.5q59 0 94 -38t35 -89q0 -41 -23.5 -75t-70.5 -56q14 -20 42.5 -41t65.5 -38.5t81 -27.5t91 -14v504q-8 4 -16 6t-19 6q-72 25 -140.5 51.5t-122.5 66.5t-87 97t-33 139t35 147.5t94.5 112.5t136 75t158.5 32v147h54v-147 q88 -2 162.5 -23.5t130 -56.5t86 -81t30.5 -99q0 -51 -30.5 -91t-90.5 -40q-66 0 -98.5 36.5t-32.5 88.5q0 35 22.5 68.5t55.5 47.5q-35 41 -93 73t-142 36v-471q14 -4 27.5 -9t27.5 -10q68 -23 136.5 -49t121.5 -66t87 -98.5t34 -148.5q0 -70 -25.5 -136.5t-79 -120.5 t-137.5 -89t-199 -39v-170h-53v170q-94 2 -177 23.5t-145.5 58.5t-98.5 88.5t-36 112.5zM342 1053q0 -86 55.5 -135.5t169.5 -92.5v449q-98 -6 -161.5 -61.5t-63.5 -159.5zM614 80q131 6 192.5 68.5t61.5 156.5q0 51 -13 88t-44 65.5t-79 54.5t-118 52v-485z" />
<glyph unicode="%" horiz-adv-x="1667" d="M94 879q0 88 36 175t97.5 156.5t141.5 113.5t166 44q72 0 125 -32.5t79 -96.5q39 -16 84 -26.5t101 -10.5q88 0 182 46t194 151h56l-975 -1456h-92l923 1319l-6 6q-61 -57 -147 -91t-191 -34q-29 0 -54.5 3t-49.5 7q2 -14 2 -27v-26q0 -63 -24.5 -152.5t-74 -172.5 t-121 -141.5t-167.5 -58.5q-135 0 -210 83.5t-75 220.5zM270 799q0 -92 38 -133t93 -41q70 0 127.5 48t99.5 120.5t64.5 154.5t22.5 150q0 37 -6 67q-55 16 -107.5 45t-99.5 70q-53 -25 -96.5 -78t-73 -120.5t-46 -142t-16.5 -140.5zM903 270q0 88 36 175t96.5 157t140 114 t167.5 44q104 0 168 -69.5t64 -198.5q0 -63 -24.5 -152.5t-74 -172.5t-122 -141.5t-166.5 -58.5q-137 0 -211 84t-74 219zM1079 190q0 -92 38 -133t93 -41q70 0 127.5 48.5t98.5 121t63.5 154.5t22.5 149q0 199 -138 199q-70 0 -126 -49t-96 -123t-61.5 -161t-21.5 -165z " />
<glyph unicode="&#x26;" horiz-adv-x="1560" d="M102 319q0 145 101.5 239.5t275.5 154.5q-78 78 -122 150.5t-44 164.5q0 74 26 135.5t75 106.5t119.5 70.5t160.5 25.5q78 0 140.5 -21.5t105.5 -57.5t65.5 -84t22.5 -103q0 -104 -74.5 -181t-236.5 -155q92 -78 174 -170t133 -182q72 156 158 247t172 91q78 0 117.5 -41 t39.5 -107q0 -55 -34.5 -93t-92.5 -38q-49 0 -83.5 34t-34.5 83q0 27 12 47l-6 6q-117 -55 -223 -262q47 -80 86 -134.5t74.5 -88t71.5 -48t73 -14.5q29 0 59.5 12.5t77.5 47.5l16 -19q-80 -84 -153.5 -127t-147.5 -43q-51 0 -91 13.5t-73.5 42t-65.5 72.5t-67 106 q-72 -104 -173 -169t-242 -65q-96 0 -169 29t-122 77t-75 112t-26 136zM326 360q0 -129 80.5 -203.5t205.5 -74.5q86 0 152.5 37t126.5 112q-31 53 -75 114t-95 120t-106.5 116.5t-110.5 106.5q-92 -59 -135 -136t-43 -192zM494 1126q0 -82 49 -160.5t143 -172.5 q47 37 78 71.5t49 73.5t26.5 82t8.5 94q0 104 -44 162.5t-130 58.5q-80 0 -130 -57.5t-50 -151.5z" />
<glyph unicode="'" horiz-adv-x="516" d="M139 891l41 231q23 115 34 169.5t24 80.5q31 70 98 70q51 0 80.5 -34t29.5 -75q0 -20 -10 -47t-39.5 -75t-95.5 -140l-135 -190z" />
<glyph unicode="(" horiz-adv-x="784" d="M152 612q0 190 61 345t158.5 274t219.5 202t240 132l13 -25q-106 -61 -193.5 -141t-149 -189.5t-95 -256t-33.5 -341.5t33.5 -341t95 -255.5t148.5 -189.5t194 -141l-13 -25q-119 49 -240.5 132t-219 202t-158.5 273.5t-61 344.5z" />
<glyph unicode=")" horiz-adv-x="784" d="M-61 -315q109 61 195.5 141t148 189.5t95.5 256t34 340.5q0 195 -34 341.5t-95.5 256t-148.5 189.5t-195 141l12 25q121 -49 241.5 -132t219 -202t160 -273.5t61.5 -345.5q0 -190 -61.5 -344.5t-160 -273.5t-219 -202t-241.5 -132z" />
<glyph unicode="*" horiz-adv-x="866" d="M130 982q7 30 44 56q12 10 44 22.5t69 24.5l70 24q34 11 51 15v21q-16 6 -50 16t-70 22.5t-69 26t-45 21.5q-35 27 -43 57.5t12 57.5q45 59 117 4q12 -10 34.5 -36t45 -56.5t44.5 -59.5t32 -45l18 6v53q0 37 1 76t3 74t6 49q29 86 101 66q33 -10 43 -40t-2 -73 q-4 -14 -22.5 -43t-41 -61.5t-45 -61.5t-33.5 -43l13 -12q16 4 50 15t70.5 22.5t70.5 19.5t50 8q43 0 68 -19.5t25 -53.5q0 -37 -25 -55.5t-68 -18.5q-16 0 -50 8t-70.5 19.5t-70.5 22.5t-50 15l-13 -12q10 -14 32 -44t45.5 -61.5t42 -61t22.5 -46.5q12 -41 2 -69.5 t-43 -40.5q-72 -23 -101 67q-4 14 -6 49t-3 73t-1 73v55l-18 6q-10 -14 -32 -43t-44.5 -59.5t-45 -56t-34.5 -35.5q-72 -53 -117 6q-20 26 -13 56z" />
<glyph unicode="+" horiz-adv-x="1138" d="M111 645v45h434v432h53v-432h430v-45h-430v-438h-53v438h-434z" />
<glyph unicode="," horiz-adv-x="477" d="M45 -285q111 55 171 134t69 145l-9 4q-25 -18 -59 -18q-49 0 -84 34.5t-35 87.5q0 55 36 96.5t93 41.5q74 0 116 -49.5t42 -127.5q0 -119 -82 -215t-244 -157z" />
<glyph unicode="-" horiz-adv-x="749" d="M113 489v84h524v-84h-524z" />
<glyph unicode="." horiz-adv-x="477" d="M100 102q0 57 40 97.5t100 40.5q59 0 98 -40t39 -96q0 -57 -40 -97t-99 -40t-98.5 40t-39.5 95z" />
<glyph unicode="/" horiz-adv-x="935" d="M16 -440l435 983l426 985h61l-434 -985l-426 -983h-62z" />
<glyph unicode="0" horiz-adv-x="1255" d="M80 662q0 147 42 276t115.5 224t174 150.5t217.5 55.5q121 0 221 -54t173 -147.5t113 -221.5t40 -275t-42 -275.5t-116 -223.5t-174.5 -149.5t-216.5 -54.5q-121 0 -221.5 53.5t-173 146.5t-112.5 220.5t-40 274.5zM342 666q0 -178 17.5 -303t53.5 -205t92 -117t132 -37 t129 37t86 116t47 204.5t14 304.5q0 178 -17 304t-53 206.5t-91.5 117.5t-133.5 37q-76 0 -129 -37t-85.5 -117.5t-47 -206.5t-14.5 -304z" />
<glyph unicode="1" horiz-adv-x="870" d="M74 1307v24l489 41v-1216q0 -72 55.5 -99.5t202.5 -29.5v-27h-743v27q143 2 199.5 29.5t56.5 99.5v985q0 47 -9.5 77.5t-37 49t-78.5 28t-135 11.5z" />
<glyph unicode="2" horiz-adv-x="1144" d="M104 0v143l328 267q104 84 173 153.5t109 138t56 140t16 159.5q0 178 -68.5 254t-180.5 76q-35 0 -73 -9t-72 -25.5t-60.5 -40t-42.5 -52.5q61 -29 89 -64.5t28 -90.5q0 -59 -36 -106.5t-108 -47.5q-70 0 -110.5 46t-40.5 112q0 72 37.5 130t101 99t144.5 63.5t169 22.5 q117 0 204 -28.5t146.5 -79t89 -117t29.5 -142.5q0 -68 -24.5 -128t-80 -124.5t-145.5 -138t-221 -170.5l-317 -237v-10h532q55 0 93 8t65 31.5t48.5 66.5t43.5 111l27 -2l-6 -408h-943z" />
<glyph unicode="3" horiz-adv-x="1138" d="M76 240q0 66 40 110.5t107 44.5q68 0 101.5 -44t33.5 -97t-29.5 -89t-64.5 -54q27 -41 99.5 -74t171.5 -33q145 0 211.5 85t66.5 259q0 160 -84 237t-280 77h-60v45h37q102 0 171 20.5t108.5 62t56 104t16.5 144.5q0 154 -62.5 223.5t-191.5 69.5q-72 0 -134 -28.5 t-97 -73.5q35 -12 68.5 -50t33.5 -92q0 -53 -33.5 -98t-99.5 -45t-105.5 42t-39.5 101q0 63 34.5 114.5t94 88.5t139.5 57.5t170 20.5q117 0 205 -24.5t146.5 -67.5t88 -102.5t29.5 -129.5q0 -55 -23.5 -108t-76 -100.5t-135 -84t-199.5 -61.5v-6q225 -8 347 -93t122 -235 q0 -82 -34 -153.5t-100.5 -123.5t-164.5 -82t-228 -30q-92 0 -175 19.5t-145 54.5t-99 86.5t-37 112.5z" />
<glyph unicode="4" horiz-adv-x="1189" d="M45 422v94l678 840h145v-797h289v-137h-289v-270q0 -68 45 -95.5t144 -29.5v-27h-617v27q96 2 147.5 29.5t51.5 95.5v270h-594zM154 559h485v598h-8z" />
<glyph unicode="5" horiz-adv-x="1122" d="M94 240q0 66 40 111.5t110 45.5q66 0 98.5 -42t32.5 -93q0 -57 -35 -97t-70 -56q29 -39 96.5 -72t153.5 -33q154 0 215.5 104.5t61.5 303.5q0 195 -75 277.5t-204 82.5q-92 0 -162.5 -28.5t-136.5 -73.5l-39 18l25 668h801l-31 -205h-729l-17 -430q74 49 163 74.5 t169 25.5q129 0 220 -31.5t150.5 -86t87.5 -128t28 -159.5t-35 -167t-100.5 -143.5t-160 -100.5t-214.5 -38q-84 0 -164 18.5t-141.5 53.5t-99.5 85t-38 116z" />
<glyph unicode="6" horiz-adv-x="1169" d="M88 532q0 176 56.5 314.5t162.5 245.5q61 61 129 109t151 85t185 61.5t232 38.5v-24q-143 -35 -260 -91.5t-202 -139t-138.5 -195.5t-71.5 -262l8 -2q20 51 56 90t82 66.5t100.5 42t109.5 14.5q90 0 166 -30t130 -84t85 -129t31 -167q0 -104 -34 -196.5t-97.5 -162 t-155.5 -109.5t-207 -40q-113 0 -208 42t-164.5 117t-107.5 178t-38 228zM332 412q0 -100 21.5 -177t60.5 -129.5t90 -78t112 -25.5q131 0 184.5 113.5t53.5 326.5q0 203 -54.5 297.5t-170.5 94.5q-55 0 -108.5 -25t-95.5 -76t-67.5 -130.5t-25.5 -190.5z" />
<glyph unicode="7" horiz-adv-x="1069" d="M106 922l15 434h921v-23l-352 -780l-254 -573h-227v14l711 1171h-572q-47 0 -79.5 -10t-56.5 -36.5t-42 -74t-39 -122.5h-25z" />
<glyph unicode="8" horiz-adv-x="1140" d="M84 307q0 106 86 196.5t227 143.5q-129 59 -201.5 142t-72.5 202q0 82 37 150.5t98 119t143 79t172 28.5q94 0 176 -23.5t143.5 -64.5t96.5 -99.5t35 -125.5q0 -111 -80 -185.5t-217 -132.5q170 -68 255 -159t85 -222q0 -84 -42 -156.5t-109.5 -124.5t-153.5 -82 t-176 -30q-117 0 -210 25.5t-157.5 70.5t-99.5 108.5t-35 139.5zM285 319q0 -145 75.5 -232t210.5 -87q61 0 112.5 14.5t88.5 46t58.5 84t21.5 125.5q0 117 -87 194t-263 140q-14 4 -26.5 10.5t-26.5 10.5q-76 -47 -120 -126.5t-44 -179.5zM330 1075q0 -115 86 -184.5 t248 -128.5l12 -4l12 -4q78 51 106.5 120.5t28.5 163.5q0 131 -66.5 211t-189.5 80q-104 0 -170.5 -59.5t-66.5 -194.5z" />
<glyph unicode="9" horiz-adv-x="1169" d="M72 877q0 98 36.5 186t103.5 155.5t161 107.5t209 40q117 0 210 -41t157.5 -116.5t99 -180t34.5 -231.5q0 -176 -56 -312.5t-161 -240.5q-61 -61 -128.5 -110.5t-150.5 -85.5t-185.5 -61.5t-231.5 -39.5v24q141 33 256 88.5t201 139.5t140 198.5t75 264.5l-8 2 q-41 -102 -133.5 -158.5t-196.5 -56.5q-90 0 -169 29.5t-137.5 86t-92 135.5t-33.5 177zM317 897q0 -207 62.5 -302t183.5 -95q49 0 98.5 26.5t89.5 78.5t64.5 131t24.5 184q0 205 -73 308t-192 103q-131 0 -194.5 -112.5t-63.5 -321.5z" />
<glyph unicode=":" horiz-adv-x="489" d="M104 102q0 57 41 97.5t101 40.5q59 0 98 -40t39 -96q0 -57 -40 -97t-99 -40t-99.5 40t-40.5 95zM104 696q0 55 41 96.5t101 41.5q59 0 98 -40t39 -96q0 -57 -40 -97t-99 -40t-99.5 40t-40.5 95z" />
<glyph unicode=";" horiz-adv-x="489" d="M51 -285q111 55 171.5 134t68.5 145l-8 4q-25 -18 -60 -18q-49 0 -85 34.5t-36 87.5q0 55 37 96.5t94 41.5q74 0 116 -49.5t42 -127.5q0 -119 -82 -215t-243 -157zM104 696q0 55 41 96.5t101 41.5q59 0 98 -40t39 -96q0 -57 -40 -97t-99 -40t-99.5 40t-40.5 95z" />
<glyph unicode="&#x3c;" horiz-adv-x="1136" d="M172 641v49l795 436v-61l-734 -399l734 -398v-61z" />
<glyph unicode="=" horiz-adv-x="1138" d="M121 440v45h897v-45h-897zM121 846v45h897v-45h-897z" />
<glyph unicode="&#x3e;" horiz-adv-x="1136" d="M172 207v61l731 400l-731 397v61l795 -434v-49z" />
<glyph unicode="?" horiz-adv-x="985" d="M29 1188q0 66 34.5 120t95 93t140.5 60.5t172 21.5q113 0 201 -30t148.5 -79t92 -114.5t31.5 -139.5q0 -162 -130 -266t-365 -158v-301h-56v328q94 27 154.5 62.5t96.5 84t49.5 109.5t13.5 141q0 172 -71 249t-196 77q-82 0 -145.5 -35t-91.5 -84q59 -16 90 -56t31 -93 q0 -55 -36 -101.5t-106 -46.5q-68 0 -110.5 46t-42.5 112zM285 102q0 57 41 97.5t100 40.5t98 -40t39 -96q0 -57 -40 -97t-99 -40t-99 40t-40 95z" />
<glyph unicode="@" horiz-adv-x="1861" d="M125 535q0 188 64.5 346.5t180 273.5t276.5 180.5t353 65.5q152 0 286 -51.5t234.5 -143.5t159 -219t58.5 -278q0 -145 -42 -255t-108.5 -183.5t-149.5 -110.5t-167 -37q-137 0 -191.5 46t-64.5 124h-6q-57 -72 -118 -112t-138 -40q-111 0 -175.5 75t-64.5 208 q0 96 39 195.5t105.5 179.5t151.5 130t177 50q78 0 117 -30.5t63 -82.5h4l31 97l184 18l-98 -287l-86 -301q-31 -106 -2 -164.5t111 -58.5q66 0 133 37t122.5 106.5t91.5 169t36 224.5q0 137 -53.5 256.5t-146.5 208t-222 139.5t-281 51q-182 0 -332.5 -64.5t-259 -175 t-168 -259t-59.5 -318.5q0 -172 55.5 -318.5t158.5 -254t251.5 -169t335.5 -61.5q166 0 284.5 45t225.5 123l22 -29q-111 -82 -238.5 -131t-303.5 -49q-180 0 -334 59.5t-265.5 169t-174 263.5t-62.5 342zM698 420q0 -92 35 -144.5t101 -52.5q51 0 95 37t85 105l131 434 q-33 133 -133 133q-66 0 -123.5 -54.5t-99 -134t-66.5 -167.5t-25 -156z" />
<glyph unicode="A" horiz-adv-x="1404" d="M-59 0v27q49 14 89 37.5t74.5 62.5t66.5 97.5t65 140.5l434 1103h86l456 -1245q20 -51 38 -86t43.5 -56.5t63.5 -33.5t97 -20v-27h-672v27q74 4 117 14t63.5 30.5t19.5 50.5t-17 73l-123 352h-486l-67 -178q-35 -90 -45 -151q-4 -24 -4 -45q0 -31 9 -54q15 -39 57 -59.5 t112 -32.5v-27h-477zM373 588h452l-8 25q-8 26 -23.5 69t-34 97.5t-38.5 111.5q-47 133 -107 301h-8z" />
<glyph unicode="B" horiz-adv-x="1404" d="M68 0v27q68 2 110.5 12t67 26.5t35 41t10.5 55.5v1106q0 61 -45 96t-178 39v24h643q160 0 266 -28.5t170.5 -75.5t91.5 -109.5t27 -128.5q0 -57 -22.5 -111t-72 -98.5t-128 -75t-191.5 -40.5v-8q238 -10 354.5 -101.5t116.5 -244.5q0 -76 -29.5 -149t-99.5 -130 t-183.5 -92t-281.5 -35h-661zM530 39h207q98 0 162 22.5t101.5 67.5t53 112.5t15.5 159.5q0 70 -19.5 130.5t-60.5 105.5t-107.5 70.5t-162.5 25.5h-189v-694zM530 774h183q172 0 237.5 80t65.5 225q0 66 -13.5 122t-48 98t-95 66t-154.5 24h-175v-615z" />
<glyph unicode="C" horiz-adv-x="1458" d="M90 694q0 170 58.5 310.5t160 243t237.5 158.5t292 56q113 0 205 -23.5t163 -60.5l90 97h21v-496h-27q-86 217 -199.5 330.5t-279.5 113.5q-92 0 -174 -42t-143.5 -129t-97.5 -221t-36 -318q0 -178 44.5 -305t115 -208t161.5 -119t183 -38q88 0 163 26.5t136.5 72.5 t109.5 108.5t81 136.5l35 -18q-33 -76 -84.5 -147.5t-124 -129t-170 -92.5t-219.5 -35q-158 0 -287 51.5t-221.5 146.5t-142.5 230t-50 301z" />
<glyph unicode="D" horiz-adv-x="1570" d="M68 0v27q68 2 110.5 12t67 26.5t35 41t10.5 55.5v1106q0 61 -45 96t-178 39v24h641q190 0 334.5 -52t241.5 -144t146.5 -218t49.5 -274q0 -141 -43 -275t-134.5 -236.5t-232.5 -165t-338 -62.5h-665zM530 39h138q154 0 258 32.5t166.5 111.5t90 211t27.5 329 q0 201 -32.5 329t-100 203.5t-168 104.5t-235.5 29h-144v-1350z" />
<glyph unicode="E" horiz-adv-x="1425" d="M68 0v27q68 2 110.5 12t67 26.5t35 41t10.5 55.5v1106q0 61 -45 96t-178 39v24h1187l7 -460l-29 -4q-45 109 -87 189.5t-94.5 132.5t-118 78t-157.5 26h-246v-629h111q63 0 112.5 13t87.5 46t65.5 87.5t47.5 135.5h27v-602h-27q-20 82 -47.5 136.5t-65.5 86t-87 45 t-113 13.5h-111v-682h242q109 0 185.5 26.5t135 82t105.5 140.5t94 201l29 -2l-10 -487h-1243z" />
<glyph unicode="F" horiz-adv-x="1347" d="M68 0v27q68 2 110.5 12t67 26.5t35 41t10.5 55.5v1106q0 61 -45 95t-178 38v26h1181l17 -471l-29 -2q-45 115 -91 197t-101.5 135t-125 78t-163.5 25h-226v-646h111q63 0 112.5 12.5t86.5 43t63.5 84t46.5 135.5h27v-596h-27q-20 82 -46.5 135t-63.5 85t-86 45t-113 13 h-111v-538q0 -33 9.5 -56.5t35 -41t69.5 -26.5t112 -11v-27h-688z" />
<glyph unicode="G" horiz-adv-x="1538" d="M90 711q0 168 62.5 306t166 237.5t237.5 153.5t280 54q121 0 210 -23.5t160 -60.5l92 97h23v-474h-29q-86 205 -204.5 313.5t-272.5 108.5q-86 0 -168 -37.5t-144.5 -122.5t-101.5 -219.5t-39 -328.5q0 -193 41 -328t108 -220t150.5 -124t172.5 -39q180 0 278 86v387 q0 63 -47 102t-180 44v26h620v-26q-96 -6 -127.5 -36t-31.5 -110v-377q-104 -66 -242.5 -100.5t-269.5 -34.5q-145 0 -279.5 48t-238 142.5t-165 234t-61.5 321.5z" />
<glyph unicode="H" horiz-adv-x="1697" d="M68 0v27q68 2 110.5 11t67 25.5t35 41t10.5 55.5v1108q0 31 -10.5 55.5t-35 41.5t-67.5 26.5t-110 11.5v24h671v-24q-66 -2 -106.5 -11.5t-63 -25.5t-31 -41t-8.5 -57v-506h637v506q0 33 -8 57.5t-29.5 40.5t-61.5 25.5t-105 11.5v24h667v-24q-68 -2 -110.5 -11.5 t-67.5 -26.5t-35 -42t-10 -55v-1108q0 -31 10 -55.5t35 -41t68 -25.5t110 -11v-27h-667v27q66 2 105.5 11t61 24.5t29.5 40t8 57.5v559h-637v-559q0 -33 8.5 -57.5t31 -40t63.5 -24.5t106 -11v-27h-671z" />
<glyph unicode="I" horiz-adv-x="860" d="M82 0v27q70 2 115 12t70.5 26.5t34.5 41t9 55.5v1106q0 31 -9 55.5t-34.5 40.5t-70.5 26.5t-115 12.5v24h696v-24q-70 -2 -115 -12.5t-70.5 -26.5t-34.5 -41t-9 -55v-1106q0 -31 9 -55.5t34.5 -41t71 -26.5t114.5 -12v-27h-696z" />
<glyph unicode="J" horiz-adv-x="1157" d="M63 229q0 74 43.5 123t108.5 49q63 0 104 -42t41 -103t-40.5 -110.5t-118.5 -55.5q37 -35 92 -55.5t117 -20.5q131 0 186 84t55 269v901q0 31 -10 55.5t-35.5 41.5t-71 26.5t-116.5 11.5v24h694v-24q-68 -2 -111 -12.5t-67.5 -26.5t-33.5 -41t-9 -55v-846 q0 -217 -107.5 -337t-326.5 -120q-98 0 -172 21.5t-123 57.5t-74 84t-25 101z" />
<glyph unicode="K" horiz-adv-x="1548" d="M61 0v27q68 2 111 11t67.5 25.5t35 41t10.5 55.5v1108q0 31 -10.5 55.5t-35 41.5t-67.5 26.5t-111 11.5v24h672v-24q-66 -2 -106.5 -11.5t-63 -25.5t-31 -41t-8.5 -57v-623l486 496q45 47 69 90q20 36 21 65q0 6 -1 13q-5 35 -43 59.5t-118 32.5v26h565v-26 q-63 -12 -117.5 -32.5t-108.5 -57.5t-115.5 -91.5t-139.5 -134.5l-207 -206l434 -605q51 -70 87 -114.5t69 -71.5t69.5 -40t92.5 -21v-27h-639v27q115 10 134 50q4 9 4 21q0 40 -50 113l-359 508l-133 -133v-426q0 -33 8.5 -57.5t30 -40t59 -24.5t99.5 -11v-27h-660z" />
<glyph unicode="L" horiz-adv-x="1294" d="M61 0v27q68 2 111 12t67.5 26.5t35 41t10.5 55.5v1106q0 61 -45 96t-179 39v24h674v-24q-70 -2 -111.5 -11.5t-63 -26.5t-29 -41t-7.5 -56v-1229h160q104 0 183 20.5t140.5 70.5t114 136t103.5 215l28 -2l-20 -479h-1172z" />
<glyph unicode="M" horiz-adv-x="1996" d="M68 0v27q72 12 120 34.5t76.5 59.5t39.5 91t11 130v832q0 94 -57 159.5t-190 69.5v24h514l446 -1105h8l422 1105h471v-24q-131 -4 -177 -39t-46 -96v-1106q0 -63 46 -97t177 -38v-27h-667v27q66 2 105.5 11t62 25.5t30.5 41t8 57.5v1130h-10l-495 -1294h-48l-538 1296 h-10v-952q0 -76 11 -130t39.5 -92t79 -60.5t128.5 -32.5v-27h-557z" />
<glyph unicode="N" horiz-adv-x="1628" d="M68 0v27q72 12 120 34.5t76.5 59.5t40.5 91t12 130v825q0 47 -14 89t-45 74t-78 51.5t-112 21.5v24h436l813 -1081h2v741q0 76 -14.5 130.5t-46 92.5t-84 60.5t-130.5 32.5v24h564v-24q-72 -12 -119 -34.5t-73.5 -59.5t-37 -91.5t-10.5 -130.5v-1118h-68l-931 1229h-2 v-856q0 -76 11 -130t41 -92t81 -60.5t129 -32.5v-27h-561z" />
<glyph unicode="O" horiz-adv-x="1566" d="M90 711q0 168 56.5 306t152.5 237.5t222 153.5t263 54q141 0 267.5 -53t220.5 -150.5t149.5 -234.5t55.5 -307q0 -168 -56.5 -307.5t-151.5 -237.5t-221 -152.5t-264 -54.5q-141 0 -268 53.5t-221 150.5t-149.5 234.5t-55.5 307.5zM362 715q0 -201 31 -337t88.5 -219 t136 -119t175.5 -36q96 0 171.5 36t130 119t83 219t28.5 335q0 201 -31.5 337t-88 219t-136.5 118.5t-176 35.5t-172 -35.5t-129 -118.5t-82 -218t-29 -336z" />
<glyph unicode="P" horiz-adv-x="1337" d="M68 0v27q68 2 110.5 12t67 26.5t35 41t10.5 55.5v1106q0 61 -45 96t-178 39v24h608q170 0 282.5 -30.5t182 -82.5t98.5 -124t29 -156q0 -78 -31 -150.5t-101.5 -130t-185 -91t-284.5 -33.5h-136v-467q0 -33 10.5 -57.5t36 -41t71.5 -25.5t120 -11v-27h-700zM530 668h138 q104 0 170.5 24.5t104.5 71.5t51.5 115.5t13.5 156.5q0 78 -14.5 142.5t-51.5 110.5t-101.5 73t-164.5 27h-146v-721z" />
<glyph unicode="Q" horiz-adv-x="1566" d="M90 713q0 168 56.5 306t152.5 236.5t222 152.5t263 54q141 0 267.5 -52t220.5 -149.5t149.5 -234.5t55.5 -307q0 -156 -48.5 -286t-131.5 -227t-193.5 -157.5t-235.5 -75.5q76 -29 134.5 -84t109.5 -112.5t100.5 -99.5t104.5 -42q31 0 43 15.5t12 38.5q0 20 -16.5 36.5 t-37 34t-36.5 39t-16 54.5q0 45 30.5 79.5t83.5 34.5q55 0 91 -42t36 -101q0 -55 -23.5 -101.5t-66.5 -81t-101.5 -54t-129.5 -19.5q-70 0 -127.5 23.5t-104.5 58.5t-88 76t-79.5 75.5t-76.5 58t-81 23.5q-66 0 -133.5 -39t-151.5 -116l-22 24q174 186 335 225 q-119 23 -223 83.5t-180 155.5t-120 220t-44 277zM362 717q0 -201 31 -337t88.5 -219t136 -119t175.5 -36q96 0 171.5 36t130 119t83 219t28.5 335q0 201 -31.5 336t-88 218t-136.5 118.5t-176 35.5t-172 -35.5t-129 -117.5t-82 -217t-29 -336z" />
<glyph unicode="R" horiz-adv-x="1462" d="M68 0v27q68 2 110.5 12t67 26.5t35 41t10.5 55.5v1106q0 61 -45 96t-178 39v24h645q158 0 268.5 -26.5t180 -73.5t101 -110.5t31.5 -135.5q0 -66 -23.5 -124t-75.5 -104t-134 -80t-201 -52v-6q115 -4 187.5 -31t117.5 -72t66.5 -108.5t32.5 -141.5l14 -116 q10 -68 24.5 -109t39 -63.5t66.5 -29.5t108 -7v-25q-53 -12 -106.5 -17t-106.5 -5q-82 0 -133.5 14t-82 46t-44 81t-21.5 119l-18 188q-8 78 -25.5 128t-53.5 80t-92.5 41t-146.5 11h-156v-536q0 -66 43 -98.5t172 -36.5v-27h-677zM530 737h172q102 0 167 21.5t102 63.5 t50 104.5t13 144.5q0 74 -17.5 132.5t-58 99t-109.5 63.5t-173 23h-146v-652z" />
<glyph unicode="S" horiz-adv-x="1187" d="M113 -37v512h28q47 -102 97.5 -187t110 -146.5t129 -95.5t151.5 -34q76 0 132 23.5t94 60.5t56.5 84t18.5 96q0 68 -23.5 118t-69.5 88t-117 70t-167 64q-76 27 -150.5 55.5t-134 72.5t-95.5 110t-36 164q0 102 36 183t100.5 137.5t152.5 87t192 30.5q92 0 172 -20.5 t134 -49.5l75 82h25v-456h-29q-86 205 -185 305t-224 100q-51 0 -99.5 -16.5t-85 -49t-59.5 -78.5t-23 -108q0 -66 25 -113.5t72 -83.5t114.5 -65t155.5 -57q74 -25 146.5 -53.5t130 -73.5t93.5 -111.5t36 -167.5q0 -84 -27 -168t-85 -150.5t-150.5 -108.5t-225.5 -42 q-88 0 -182 27t-162 65l-123 -100h-24z" />
<glyph unicode="T" horiz-adv-x="1433" d="M80 983l12 444h1256l12 -444l-29 -2q-96 195 -196.5 301.5t-216.5 106.5h-80v-1227q0 -63 53 -97t190 -38v-27h-725v27q137 4 190.5 37.5t53.5 97.5v1227h-80q-115 0 -215 -101.5t-199 -306.5z" />
<glyph unicode="U" horiz-adv-x="1617" d="M45 1403v24h670v-24q-66 -2 -106 -11.5t-62.5 -26.5t-30.5 -41t-8 -56v-826q0 -117 32.5 -194.5t89 -125.5t132.5 -67.5t162 -19.5q78 0 146.5 23.5t115.5 70.5q53 53 83.5 134t30.5 198v626q0 76 -13 130.5t-46 92.5t-85 60.5t-130 32.5v24h565v-24q-72 -12 -119 -34.5 t-73.5 -59.5t-36.5 -91.5t-10 -130.5v-643q0 -106 -31 -195t-95.5 -151.5t-163.5 -97.5t-237 -35q-268 0 -412.5 114t-144.5 337v852q0 31 -10 55.5t-35.5 40.5t-68.5 26.5t-109 12.5z" />
<glyph unicode="V" horiz-adv-x="1445" d="M-18 1403v24h667v-26q-143 -6 -177 -46q-17 -20 -17 -53q0 -31 16 -73l360 -967h9l327 854q32 84 33 141q0 33 -11 56q-30 63 -169 88v26h479v-26q-53 -10 -93 -30.5t-74 -58.5t-64.5 -97.5t-65.5 -149.5l-432 -1102h-72l-473 1229q-20 55 -38.5 91t-45 59.5t-63.5 38 t-96 22.5z" />
<glyph unicode="W" horiz-adv-x="2109" d="M-6 1403v24h635v-26q-61 -2 -98 -14.5t-52.5 -33t-13.5 -51t14 -71.5l281 -924h8q78 211 141 377q27 72 52.5 139.5t46 120.5t31.5 85l12 32l-43 133q-20 61 -40 99t-44.5 60.5t-59.5 33t-86 16.5v24h625v-26q-127 -6 -159 -41q-16 -17 -15 -49q0 -33 16 -80l299 -920h8 l252 799q23 74 27 124q1 9 1 18q0 38 -15 65q-18 33 -59.5 52.5t-106.5 31.5v26h485v-26q-57 -8 -100 -30.5t-77 -61.5t-61.5 -97.5t-54.5 -142.5l-350 -1106h-72l-348 1032l-15 -44q-15 -44 -41 -116.5t-59.5 -166t-68.5 -189.5q-82 -227 -187 -516h-71l-398 1231 q-18 55 -35.5 91t-44 59.5t-64.5 37t-95 21.5z" />
<glyph unicode="X" horiz-adv-x="1454" d="M-4 0v27q59 8 103 23.5t86 48t90.5 88t111.5 141.5l256 352l-358 547q-27 43 -50.5 71.5t-53 48t-71.5 33t-108 23.5v24h676v-24q-133 -6 -156 -54q-7 -15 -7 -34q0 -40 34 -94q70 -109 123 -195q23 -37 45 -71.5t38.5 -62.5t26.5 -45l11 -18l221 312q60 85 60 145 q0 18 -6 34q-24 69 -153 81v26h521v-26q-59 -8 -104.5 -25.5t-88.5 -51.5t-89 -88t-107 -138q-63 -86 -113 -154q-41 -59 -76 -106t-37 -47l389 -592q27 -41 50.5 -69t53 -47.5t70.5 -32.5t105 -23v-27h-674v27q72 4 111 16t51 33.5t2 52.5t-35 72l-274 438l-11 -14 q-10 -14 -27.5 -40t-40 -57.5t-46.5 -64.5q-55 -78 -125 -178q-59 -83 -59 -142q0 -19 7 -37q26 -68 150 -79v-27h-522z" />
<glyph unicode="Y" horiz-adv-x="1386" d="M-14 1403v24h659v-24q-76 -4 -118 -17.5t-57 -36t-8 -53t30 -71.5l299 -541l266 465q37 61 51 103q8 24 8 45q0 15 -4 27q-10 30 -48 47.5t-110 29.5v26h473v-24q-51 -8 -92 -24.5t-78.5 -48.5t-75.5 -82t-83 -130l-281 -481v-475q0 -31 9.5 -55.5t35 -41t70.5 -26.5 t115 -12v-27h-697v27q72 2 116 12t69.5 26.5t35 41t9.5 55.5v434l-361 637q-23 41 -45 68.5t-49 47t-59.5 32t-79.5 22.5z" />
<glyph unicode="Z" horiz-adv-x="1331" d="M70 23l891 1363h-377q-111 0 -210.5 -93t-219.5 -310l-29 4l35 440h1091l2 -22l-891 -1364h437q61 0 111.5 24.5t99.5 76t101 131t118 192.5l28 -4l-28 -461h-1157z" />
<glyph unicode="[" horiz-adv-x="751" d="M203 -338v1903h596v-43h-404v-1817h404v-43h-596z" />
<glyph unicode="\" horiz-adv-x="935" d="M-4 1528h61l426 -985l435 -983h-62l-426 983z" />
<glyph unicode="]" horiz-adv-x="751" d="M-47 -295h403v1817h-403v43h596v-1903h-596v43z" />
<glyph unicode="^" horiz-adv-x="727" d="M47 1096l305 465h35l295 -465h-49l-268 276l-269 -276h-49z" />
<glyph unicode="_" horiz-adv-x="901" d="M-4 0v63h909v-63h-909z" />
<glyph unicode="`" horiz-adv-x="487" d="M45 1425q0 39 27.5 66t68.5 27q47 0 74 -40t55 -128l97 -260h-29l-188 182q-53 53 -79 87.5t-26 65.5z" />
<glyph unicode="a" d="M82 211q0 61 28.5 117.5t94.5 91.5q57 31 125.5 50t132 31.5t113 21.5t67.5 18v145q0 117 -38 173t-128 56q-53 0 -97 -15t-73 -44q25 -25 40 -52.5t15 -60.5q0 -53 -31.5 -86.5t-90.5 -33.5q-53 0 -86 35.5t-33 84.5q0 92 103.5 150.5t277.5 58.5t264 -69.5t90 -229.5 v-481q0 -76 33 -102q14 -12 39 -12q33 0 84 20l8 -21q-53 -33 -98 -51t-99 -18q-86 0 -123.5 36.5t-46.5 120.5h-8q-59 -68 -132 -113.5t-169 -45.5q-68 0 -118 19.5t-81.5 51t-47 71.5t-15.5 83zM311 246q0 -72 37 -120t115 -48q55 0 102 36t78 79v307q-102 -20 -166.5 -43 t-101.5 -51.5t-50.5 -67.5t-13.5 -92z" />
<glyph unicode="b" horiz-adv-x="1107" d="M-27 1432v24l379 12v-653q61 63 138 100t172 37q90 0 159.5 -34.5t117.5 -96t73.5 -145.5t25.5 -182q0 -106 -30.5 -199.5t-87 -164.5t-137.5 -112t-183 -41q-80 0 -164 21.5t-166 75.5l-108 -111h-29l4 187v1177q0 27 -5 45.5t-22.5 31.5t-49.5 19.5t-87 8.5zM352 178 q33 -82 92.5 -122t124.5 -40q61 0 105.5 34t74 95.5t43 147.5t13.5 190q0 84 -16.5 156t-49 124t-79 81.5t-105.5 29.5t-107.5 -25.5t-95.5 -74.5v-596z" />
<glyph unicode="c" horiz-adv-x="950" d="M66 446q0 115 37.5 208.5t104 159t157 102t194.5 36.5q90 0 154.5 -20.5t107.5 -53t63.5 -71.5t20.5 -74q0 -57 -30.5 -94t-86.5 -37q-63 0 -97 36t-34 87q0 43 21.5 74.5t44.5 44.5q-23 29 -61.5 50t-98.5 21q-115 0 -189.5 -112.5t-74.5 -317.5q0 -88 19.5 -164.5 t58.5 -135t98.5 -92.5t138.5 -34q90 0 156 41t129 121l23 -16q-63 -96 -158.5 -162t-249.5 -66q-102 0 -185 35t-141.5 97.5t-90 148.5t-31.5 188z" />
<glyph unicode="d" horiz-adv-x="1116" d="M66 453q0 104 33.5 195t96 158.5t149.5 106.5t192 39q74 0 121 -12t87 -35v422q0 27 -5 45.5t-22.5 31.5t-50 19.5t-85.5 8.5v24l379 12v-1364q0 -39 28.5 -60t118.5 -24v-20l-358 -8v106q-51 -53 -119 -87t-160 -34q-94 0 -170 37t-128 100.5t-79.5 151t-27.5 187.5z M299 463q0 -84 17.5 -157t51 -127t85 -85t116.5 -31q61 0 102.5 21.5t73.5 56.5v670q-35 47 -79.5 75.5t-116.5 28.5q-57 0 -104.5 -32.5t-79 -92t-49 -142.5t-17.5 -185z" />
<glyph unicode="e" horiz-adv-x="991" d="M66 455q0 111 36.5 202t100 156.5t147.5 102t178 36.5q102 0 180 -33.5t129.5 -92t73.5 -137.5q18 -62 18 -132q0 -19 -1 -39h-629v-49q0 -90 20.5 -165t60.5 -129t100.5 -85t140.5 -31q96 0 160.5 46.5t127.5 127.5l23 -16q-31 -49 -69 -93t-87 -77t-109.5 -51.5 t-138.5 -18.5q-102 0 -187 35t-146.5 98.5t-95 151t-33.5 193.5zM301 555h397q5 48 5 90q0 107 -30 175q-42 95 -159 95q-92 0 -147.5 -90t-65.5 -270z" />
<glyph unicode="f" horiz-adv-x="673" d="M33 872v25l176 45v78q0 129 29.5 216t85.5 144q53 51 118.5 76t143.5 25q135 0 199.5 -50.5t64.5 -115.5q0 -55 -31 -89t-86 -34q-47 0 -86 29.5t-39 103.5q0 18 11.5 46t21.5 44q-14 12 -33.5 20.5t-42.5 8.5q-49 0 -84 -35q-29 -29 -43 -87t-14 -179v-207h260v-64h-260 v-768q0 -25 9 -40t31.5 -23t60.5 -11t93 -5v-25h-555v25q88 2 117 16t29 63v768h-176z" />
<glyph unicode="g" horiz-adv-x="960" d="M39 -205q0 70 63.5 123t182.5 70v4q-98 29 -137 73t-39 105q0 49 46 100.5t140 85.5q-86 35 -144.5 102.5t-58.5 176.5q0 74 33 132t87 100t124 63.5t145 21.5q100 0 187 -37q35 68 84 118t122 50q57 0 87 -29.5t30 -74.5q0 -37 -23.5 -62.5t-62.5 -25.5 q-35 0 -63.5 27.5t-28.5 76.5q-35 -4 -64.5 -32.5t-48.5 -63.5q72 -37 120 -101.5t48 -154.5q0 -74 -31.5 -133t-86 -101t-124 -63.5t-145.5 -21.5q-72 0 -139 18q-115 -43 -115 -100q0 -14 8.5 -28.5t30 -24t59 -15.5t99.5 -6h160q186 0 280 -58.5t94 -191.5 q0 -63 -32.5 -122.5t-96 -105.5t-157.5 -74t-217 -28q-193 0 -304.5 58.5t-111.5 148.5zM199 -178q0 -86 72.5 -142.5t236.5 -56.5q66 0 123 15.5t99 45t66.5 70.5t24.5 90q0 61 -58 99.5t-210 38.5h-209q-145 -49 -145 -160zM311 639q0 -145 44 -213t134 -68q86 0 123 68 t37 213q0 129 -43 204t-135 75q-88 0 -124 -68t-36 -211z" />
<glyph unicode="h" horiz-adv-x="1142" d="M2 1432v24l379 12v-741q70 111 159 168t193 57q121 0 186.5 -71.5t65.5 -212.5v-564q0 -49 28.5 -63t119.5 -16v-25h-486v25q72 2 97.5 16t25.5 63v521q0 111 -38 168t-130 57q-66 0 -123 -47t-98 -125v-574q0 -49 25.5 -63t95.5 -16v-25h-482v25q45 0 73 4t44.5 12 t22.5 23.5t6 39.5v1223q0 27 -5 45.5t-22.5 31.5t-50.5 19.5t-86 8.5z" />
<glyph unicode="i" horiz-adv-x="598" d="M53 0v25q45 0 74 4t46 12t23.5 23.5t6.5 39.5v703q0 47 -30 73.5t-120 28.5v25l365 12v-842q0 -25 5 -40t21.5 -23t46 -12t76.5 -4v-25h-514zM166 1257q0 63 37 102.5t96 39.5q61 0 97 -37t36 -98t-36 -100.5t-97 -39.5q-59 0 -96 36t-37 97z" />
<glyph unicode="j" horiz-adv-x="577" d="M-172 -256q0 53 35 88t86 35q53 0 86 -34t33 -87q0 -33 -13.5 -57.5t-34.5 -40.5q12 -10 29 -16.5t41 -6.5q59 0 86 52.5t27 156.5v973q0 47 -33 74.5t-133 27.5v25l381 12v-926q0 -133 -20.5 -211.5t-80.5 -136.5q-43 -45 -108.5 -64.5t-130.5 -19.5q-117 0 -183.5 43 t-66.5 113zM166 1257q0 63 37 102.5t96 39.5q61 0 97 -37t36 -98t-36 -100.5t-97 -39.5q-59 0 -96 36t-37 97z" />
<glyph unicode="k" horiz-adv-x="1081" d="M2 1432v24l379 12v-1036l301 309q56 57 56 99q0 9 -3 17q-14 46 -123 65v20h435v-24q-45 -8 -84 -21.5t-77 -37t-79 -59.5t-90 -85l-105 -105l303 -432q35 -47 57.5 -75.5t44 -44t46 -22.5t59.5 -11v-25h-485v23q80 8 90 37q2 6 2 14q0 27 -29 69l-227 330l-92 -92v-277 q0 -49 23.5 -63t82.5 -16v-25h-467v25q45 0 73 4t44.5 12t22.5 23.5t6 39.5v1223q0 27 -5 45.5t-22.5 31.5t-50.5 19.5t-86 8.5z" />
<glyph unicode="l" horiz-adv-x="595" d="M31 1432v24l379 12v-1364q0 -49 27.5 -63t117.5 -16v-25h-506v25q88 2 117 16t29 63v1223q0 27 -5.5 45.5t-22.5 31.5t-50 19.5t-86 8.5z" />
<glyph unicode="m" horiz-adv-x="1730" d="M43 0v25q88 2 116.5 16t28.5 63v703q0 47 -28.5 73.5t-116.5 28.5v25l356 12v-219q68 111 153 168t189 57q102 0 164 -53t78 -158q66 98 156 154.5t188 56.5q119 0 183.5 -71.5t64.5 -212.5v-564q0 -49 28.5 -63t116.5 -16v-25h-471v25q35 0 56.5 4t34 12t16.5 23.5 t4 39.5v521q0 111 -36 168t-124 57q-57 0 -113.5 -43t-97.5 -111v-28v-564q0 -49 26.5 -63t104.5 -16v-25h-465v25q72 2 95.5 16t23.5 63v521q0 111 -38 168t-124 57q-66 0 -117 -47t-92 -125v-574q0 -49 19.5 -63t89.5 -16v-25h-469z" />
<glyph unicode="n" horiz-adv-x="1161" d="M43 0v25q88 2 116.5 16t28.5 63v703q0 47 -28.5 73.5t-116.5 28.5v25l356 12v-219q70 111 160 168t195 57q123 0 187.5 -71.5t64.5 -212.5v-564q0 -49 28.5 -63t116.5 -16v-25h-483v25q72 2 97.5 16t25.5 63v521q0 111 -37 168t-129 57q-66 0 -123.5 -47t-98.5 -125v-574 q0 -49 26 -63t95 -16v-25h-481z" />
<glyph unicode="o" horiz-adv-x="1087" d="M66 463q0 109 37.5 199t103 154.5t152.5 100t186 35.5q102 0 188 -33.5t150.5 -97t100.5 -152.5t36 -198q0 -111 -38 -201t-102.5 -155.5t-150.5 -101.5t-184 -36q-102 0 -190.5 35t-153 98.5t-100 152.5t-35.5 200zM303 467q0 -240 65.5 -345.5t184.5 -105.5 q115 0 172 105.5t57 345.5t-65.5 344t-181.5 104q-117 0 -174.5 -104t-57.5 -344z" />
<glyph unicode="p" horiz-adv-x="1118" d="M10 -367q45 0 73 4.5t44 12.5t22.5 22.5t6.5 38.5v1096q0 47 -29 73.5t-117 28.5v25l357 12v-141q66 66 141.5 106.5t169.5 40.5q90 0 158.5 -33.5t116.5 -95t73 -146.5t25 -188q0 -100 -30 -190t-86 -155.5t-137 -104.5t-182 -39q-78 0 -134 15.5t-111 43.5v-348 q0 -25 8 -39t30.5 -22t60.5 -12.5t95 -4.5v-24h-555v24zM371 195q33 -86 87 -121t124 -35q119 0 178 112.5t59 327.5q0 80 -15.5 151.5t-46 125t-75.5 84t-107 30.5q-59 0 -108 -26.5t-96 -75.5v-573z" />
<glyph unicode="q" horiz-adv-x="1112" d="M68 449q0 102 31.5 193t91 160.5t143.5 109.5t188 40q80 0 156 -20.5t158 -73.5l108 109h31l-6 -187v-1075q0 -39 29.5 -55.5t117.5 -18.5v-22h-551v22q111 4 150 19.5t39 54.5v422q-61 -55 -134 -91t-165 -36t-164 35t-122 95t-75.5 142.5t-25.5 176.5zM301 459 q0 -78 17.5 -146.5t50 -119t81 -79t109.5 -28.5q57 0 101.5 21.5t93.5 62.5v582q-66 164 -203 163q-63 0 -110.5 -33.5t-78 -94t-46 -144.5t-15.5 -184z" />
<glyph unicode="r" horiz-adv-x="847" d="M43 0v25q88 2 116.5 16t28.5 63v703q0 47 -28.5 73.5t-116.5 28.5v25l356 12v-205q53 100 126 157.5t151 57.5q86 0 125 -45t39 -104t-35 -95t-90 -36q-57 0 -93 34.5t-36 90.5q0 16 4 33.5t8 29.5q-59 -8 -104 -51t-91 -119v-590q0 -25 8.5 -40t29 -23t55 -11t86.5 -5 v-25h-539z" />
<glyph unicode="s" horiz-adv-x="854" d="M78 -23v340h28q49 -86 90.5 -143t82 -92t84 -50.5t98.5 -15.5q88 0 133 49.5t45 108.5q0 37 -12.5 64.5t-42 52t-79.5 45t-126 41.5q-78 23 -134.5 47.5t-92 56t-53 73.5t-17.5 99q0 66 24.5 120t68.5 94t108.5 62.5t144.5 22.5q68 0 128 -18.5t101 -42.5l54 61h22v-303 h-28q-45 72 -80 123t-69 83t-70.5 46t-84.5 14q-72 0 -118.5 -43t-46.5 -114q0 -66 60 -105t179 -71q78 -20 136.5 -46t97.5 -60t57 -79t18 -104q0 -63 -22.5 -120.5t-66.5 -100.5t-108.5 -69t-148.5 -26q-29 0 -65.5 6.5t-74.5 15.5t-71.5 22.5t-58.5 27.5l-66 -72h-24z " />
<glyph unicode="t" horiz-adv-x="718" d="M6 872v25l193 45v260l213 76v-342h290v-64h-290v-641q0 -92 27.5 -131t88.5 -39q47 0 90.5 33t83.5 105l25 -17q-49 -100 -117.5 -152.5t-167.5 -52.5q-121 0 -183 66t-62 207v622h-191z" />
<glyph unicode="u" horiz-adv-x="1142" d="M18 913v25l365 8v-629q0 -113 37 -170t129 -57q68 0 121 46t94 124v553q0 47 -29.5 72.5t-118.5 27.5v25l363 8v-846q0 -41 29.5 -57t117.5 -20v-23h-358v211q-137 -225 -340 -225q-121 0 -190.5 70.5t-69.5 213.5v543q0 47 -30 72.5t-120 27.5z" />
<glyph unicode="v" horiz-adv-x="1003" d="M-29 918v24h506v-24q-92 -6 -111 -37q-9 -14 -9 -35q0 -24 12 -55l217 -576h8l188 471q25 59 31 100q2 13 2 25q0 25 -9 43q-13 27 -47 42t-89 22v24h372v-24q-53 -6 -100 -49.5t-82 -125.5l-317 -757h-76l-315 780q-16 41 -33 67.5t-37.5 44t-47 27t-63.5 13.5z" />
<glyph unicode="w" horiz-adv-x="1521" d="M-27 918v24h502v-24q-90 -6 -113 -39q-12 -17 -11 -41q0 -22 9 -50l213 -569h9l188 451q0 2 -5 16t-11 33q-8 23 -19 47q-29 80 -62.5 111.5t-101.5 40.5v24h490v-24q-88 -6 -113 -38q-13 -17 -13 -43q0 -21 9 -49l193 -565h8l151 463q23 61 29 102q2 14 2 26q0 24 -8 42 q-12 27 -44 41t-85 21v24h373v-24q-59 -6 -110.5 -47.5t-82.5 -127.5l-268 -757h-84l-227 626l-256 -626h-80l-303 780q-29 78 -67 111t-112 41z" />
<glyph unicode="x" horiz-adv-x="1040" d="M-6 0v27q37 6 68.5 18t62.5 33.5t63.5 53.5t71.5 79l184 225l-9 14q-9 13 -25.5 35.5t-37 51t-42.5 59.5q-51 70 -115 158q-35 49 -60.5 78.5t-49 47t-49 25.5t-62.5 13v24h489v-24q-98 -13 -97 -49q0 -30 38 -85l149 -223l119 152q61 79 61 125q0 8 -1 15 q-12 48 -105 65v24h395v-24q-43 -8 -77.5 -20.5t-66.5 -34t-64.5 -55.5t-73.5 -83l-160 -195l244 -337q35 -47 59.5 -77t47 -48.5t47 -26.5t57.5 -14v-27h-490v27q49 6 75 16t32 25.5t-4.5 38t-32.5 55.5l-166 244l-141 -179q-58 -77 -59 -120q0 -10 3 -19q16 -45 121 -61 v-27h-399z" />
<glyph unicode="y" d="M-35 918v24h508v-24q-92 -6 -111 -38q-8 -14 -7 -32q0 -24 14 -57l239 -574l185 469q25 61 30 102q2 13 2 25q0 25 -9 43q-13 27 -47 41t-89 21v24h371v-24q-53 -6 -100.5 -49.5t-82.5 -125.5l-336 -817q-41 -98 -79.5 -163.5t-78.5 -104.5t-81 -54.5t-84 -15.5 q-74 0 -117 43t-43 103q0 47 30 85t87 38q47 0 81 -34t34 -87q0 -33 -12.5 -59.5t-32.5 -43.5q31 4 61.5 18.5t62 49.5t65.5 94.5t71 153.5l10 28l-14 34q-14 34 -40 90.5t-58 127t-66 144.5q-80 172 -178 393q-18 41 -36 67.5t-38.5 44t-47 27t-63.5 13.5z" />
<glyph unicode="z" horiz-adv-x="962" d="M59 27l609 874h-209q-43 0 -80 -13.5t-75 -46t-79 -89t-90 -140.5l-31 4l31 326h772l4 -27l-606 -874h230q47 0 87 16.5t77.5 52t78.5 94t90 144.5l31 -4l-29 -344h-807z" />
<glyph unicode="{" horiz-adv-x="835" d="M55 616v33q100 6 167 24.5t106 49.5t54 76t15 102q0 53 -18.5 128t-18.5 151q0 190 135.5 283t370.5 102v-27q-94 -8 -150.5 -34.5t-85 -70.5t-37.5 -103.5t-9 -131.5q0 -45 4 -105.5t4 -127.5q0 -78 -18.5 -133.5t-66.5 -94.5t-129 -62.5t-204 -37.5v-10 q121 -10 201 -35t128 -66t68.5 -98t20.5 -135q0 -68 -4 -133.5t-4 -110.5q0 -72 9 -132t37.5 -105t85 -74t150.5 -35v-29q-236 0 -371 100.5t-135 293.5q0 78 18.5 156.5t18.5 131.5q0 59 -15 104.5t-54 78t-106 52t-167 25.5z" />
<glyph unicode="|" horiz-adv-x="626" d="M287 -440v1968h53v-1968h-53z" />
<glyph unicode="}" horiz-adv-x="835" d="M-31 -297q94 6 150.5 35t86.5 74t39 105t9 132q0 45 -5 110.5t-5 133.5q0 78 20.5 135t68.5 98t129 65.5t200 35.5v10q-123 14 -204 37.5t-128 62.5t-66.5 94.5t-19.5 133.5q0 68 5 128t5 105q0 72 -9 131.5t-39 103.5t-86.5 70.5t-150.5 34.5v27q238 -8 373 -101.5 t135 -283.5q0 -76 -18.5 -151t-18.5 -128q0 -57 15.5 -102t54.5 -76t105.5 -49.5t166.5 -24.5v-33q-100 -6 -166.5 -25.5t-105.5 -52t-54.5 -77.5t-15.5 -105q0 -53 18.5 -132t18.5 -156q0 -193 -135 -293.5t-373 -100.5v29z" />
<glyph unicode="~" horiz-adv-x="813" d="M92 565q18 135 64.5 199.5t134.5 64.5q37 0 78 -16t80.5 -36.5t76.5 -37t66 -16.5t52.5 25.5t43.5 97.5h39q-18 -135 -65.5 -199.5t-133.5 -64.5q-37 0 -77.5 16t-80.5 36.5t-77 37t-66 16.5t-53 -25.5t-43 -97.5h-39z" />
<glyph unicode="&#xa1;" horiz-adv-x="573" d="M145 1348q0 57 40 97t100 40q59 0 99 -40t40 -95q0 -57 -41 -97.5t-100 -40.5t-98.5 40.5t-39.5 95.5zM154 133q0 66 14 163t32.5 216t38 257t29.5 286h31q10 -147 29.5 -285.5t38 -257.5t33 -216t14.5 -163q0 -166 -131 -166q-61 0 -95 42t-34 124z" />
<glyph unicode="&#xa2;" horiz-adv-x="1089" d="M131 455q0 102 35 189t94 152.5t140 105.5t175 48v142h54v-140q90 0 158.5 -22.5t114.5 -57t70.5 -75.5t24.5 -82q0 -55 -30.5 -95t-85.5 -40q-63 0 -95 34.5t-32 85.5q0 45 20.5 75t44.5 46q-18 35 -67.5 64.5t-120.5 29.5h-2v-852q12 -2 24.5 -3t26.5 -1q94 0 162.5 44 t134.5 124l22 -16q-31 -45 -66.5 -86t-79.5 -73t-99.5 -51t-124.5 -24v-159h-54v159q-104 4 -186 41t-139 100.5t-88 150t-31 186.5zM365 492q0 -154 50 -265.5t160 -150.5v831q-92 -23 -151 -126t-59 -289z" />
<glyph unicode="&#xa3;" horiz-adv-x="1243" d="M94 82q0 72 69.5 123t196.5 51q33 0 66 -6q12 27 18.5 55.5t6.5 67.5q0 86 -29 156.5t-64 140.5h-237v43h215q-25 53 -44.5 111.5t-19.5 123.5q0 100 37 178t102.5 132.5t153.5 82t191 27.5q78 0 144.5 -20.5t115.5 -56.5t77.5 -85t28.5 -106q0 -61 -34.5 -104.5 t-94.5 -43.5q-66 0 -105.5 36t-39.5 108q0 49 29.5 85t64.5 56q-31 39 -82 66.5t-125 27.5q-49 0 -93 -14t-75.5 -47t-51 -84t-19.5 -123q0 -102 36.5 -185t69.5 -165h340l-2 -43h-322q12 -35 19.5 -70t7.5 -74q0 -86 -44 -155.5t-126 -128.5q90 -18 192.5 -46t235.5 -28 q49 0 90 10t72 38t50.5 74t27.5 116l35 -3q0 -98 -21.5 -178t-63.5 -137t-100.5 -89t-132.5 -32q-90 0 -200.5 63.5t-219.5 162.5q-35 -100 -91 -163t-134 -63q-59 0 -90 34t-31 81z" />
<glyph unicode="&#xa4;" horiz-adv-x="1400" d="M59 530v43h166q-2 20 -2 39v39q0 33 3 63.5t7 61.5h-174v43h183q25 115 83 214.5t142 174t192.5 117.5t237.5 43q92 0 168 -23.5t130 -61.5t84 -88t30 -105q0 -63 -39 -107.5t-101 -44.5q-63 0 -105 38t-42 109q0 57 31.5 95.5t68.5 54.5q-20 31 -84.5 63.5t-146.5 32.5 q-84 0 -155.5 -29.5t-125 -92t-88.5 -159t-45 -231.5h438v-43h-442q-2 -23 -2 -43v-43q0 -61 6 -117h438v-43h-432q35 -205 150 -319.5t287 -114.5q123 0 219 63.5t155 172.5l35 -21q-33 -66 -77 -128t-104.5 -110t-137 -78t-179.5 -30q-133 0 -237.5 45t-180 122 t-120.5 179.5t-62 218.5h-172z" />
<glyph unicode="&#xa5;" horiz-adv-x="1411" d="M20 1309v26h650v-26q-76 -4 -116 -18.5t-53.5 -38t-5 -53.5t28.5 -66l269 -484l213 371q39 68 53 116t4 80.5t-48 54t-104 36.5v28h465v-26q-88 -18 -158.5 -80t-144.5 -189l-217 -374h369v-43h-394l-20 -35v-119h414v-43h-414v-260q0 -31 9 -55.5t35 -43t71 -28.5 t116 -12v-27h-692v27q72 2 117 12t69.5 28.5t34 43t9.5 55.5v260h-414v43h414v117l-23 37h-391v43h366l-280 475q-20 37 -43 64.5t-49.5 47t-60.5 33t-79 23.5z" />
<glyph unicode="&#xa7;" horiz-adv-x="1142" d="M135 -14q0 57 32 100t97 43q61 0 94 -38t33 -87q0 -41 -23.5 -74.5t-64.5 -56.5q29 -37 102.5 -62.5t176.5 -25.5q121 0 188.5 56.5t67.5 133.5q0 37 -14.5 68t-53.5 59.5t-104.5 57t-167.5 63.5q-84 29 -149.5 57.5t-110.5 64.5t-69 80t-24 103q0 98 68 176t197 115v2 q-111 49 -172.5 110.5t-61.5 160.5q0 76 32 136t88 102t133 64.5t165 22.5q74 0 141.5 -17.5t117.5 -47t81 -70.5t31 -90q0 -59 -33 -94t-86 -35q-59 0 -91 36t-32 83q0 37 17.5 68.5t58.5 47.5q-18 27 -71.5 52.5t-147.5 25.5q-104 0 -177 -49t-73 -139q0 -37 19.5 -65.5 t61.5 -56.5t106.5 -55.5t154.5 -62.5q82 -31 143.5 -59.5t103.5 -64.5t62 -80t20 -103q0 -92 -56 -168t-181 -119v-4q115 -47 165 -107.5t50 -162.5q0 -154 -108.5 -245t-305.5 -91q-84 0 -161.5 15.5t-137 45t-95.5 75t-36 106.5zM289 633q0 -39 17.5 -67.5t56 -53.5 t103 -50.5t157.5 -55.5q45 -14 84 -31q80 27 119.5 66.5t39.5 86.5q0 37 -15 66t-50 55.5t-89.5 52t-131.5 54.5q-25 8 -60 20t-57 23q-174 -49 -174 -166z" />
<glyph unicode="&#xa8;" horiz-adv-x="716" d="M43 1278q0 55 35 93t90 38q57 0 92 -38t35 -93q0 -53 -35 -91t-92 -38q-55 0 -90 38t-35 91zM422 1278q0 55 36 93t91 38t91 -38t36 -93q0 -53 -36 -91t-91 -38t-91 38t-36 91z" />
<glyph unicode="&#xa9;" horiz-adv-x="1708" d="M70 715q0 166 60 308t165.5 247.5t249 166t309.5 60.5t309.5 -60.5t249 -166t165.5 -247.5t60 -308q0 -168 -60 -311.5t-165.5 -249t-249 -165t-309.5 -59.5t-309.5 59.5t-249 165t-165.5 249t-60 311.5zM111 715q0 -156 56 -292t156.5 -237.5t235.5 -161t295 -59.5 t295 59.5t235.5 161t156.5 237.5t56 292t-56 292t-156.5 237.5t-235.5 159.5t-295 58t-295 -58t-235.5 -159.5t-156.5 -237.5t-56 -292zM469 707q0 100 34 180t90 135t133 85t163 30q61 0 115.5 -16.5t89.5 -39.5l43 58h24v-297h-31q-53 131 -112.5 196.5t-145.5 65.5 q-98 0 -162.5 -95.5t-64.5 -277.5q0 -92 21.5 -161.5t56.5 -115.5t82 -70t98 -24q92 0 153.5 47.5t102.5 141.5l33 -14q-18 -43 -46 -84t-68 -73t-93 -52.5t-121 -20.5q-180 0 -287.5 104.5t-107.5 297.5z" />
<glyph unicode="&#xaa;" horiz-adv-x="901" d="M100 858q0 51 23.5 93t71.5 69q43 25 95 38t100 21l87 14.5t53 12.5v121q0 84 -26.5 120.5t-93.5 36.5q-39 0 -72 -8t-53 -26q41 -41 41 -86q0 -43 -25 -70t-72 -27q-41 0 -67.5 28t-26.5 67q0 70 79 113.5t220 43.5q135 0 205 -53t70 -176v-359q0 -55 25.5 -76.5 t88.5 7.5l11 -21q-41 -27 -78 -41t-78 -14q-70 0 -99.5 27.5t-35.5 89.5h-8q-45 -49 -100.5 -85t-127.5 -36q-104 0 -155.5 54t-51.5 122zM291 885q0 -55 27.5 -88t84.5 -33q37 0 72 23.5t55 54.5v231q-74 -14 -119.5 -29.5t-72.5 -37t-37 -51t-10 -70.5z" />
<glyph unicode="&#xab;" horiz-adv-x="1036" d="M76 461q0 10 6 20.5t35 32.5l383 348l24 -18l-264 -383l264 -387l-24 -17l-383 349q-29 25 -35 35t-6 20zM489 461q0 10 7.5 20.5t33.5 32.5l385 348l25 -18l-266 -383l266 -387l-25 -17l-385 349q-27 25 -34 35t-7 20z" />
<glyph unicode="&#xad;" horiz-adv-x="749" d="M113 489v84h524v-84h-524z" />
<glyph unicode="&#xae;" horiz-adv-x="788" d="M78 1184q0 70 23.5 127t65.5 99t99.5 64.5t124.5 22.5q70 0 128.5 -22.5t100.5 -64.5t65.5 -99.5t23.5 -126.5q0 -68 -23.5 -126.5t-65.5 -101.5t-100.5 -66.5t-128.5 -23.5q-68 0 -125 23.5t-99 66.5t-65.5 101.5t-23.5 126.5zM109 1184q0 -61 20.5 -115.5t57 -93.5 t89 -61.5t115.5 -22.5q66 0 118 22.5t90 61.5t58.5 93t20.5 116q0 61 -20.5 114.5t-58.5 92.5t-90 60.5t-118 21.5q-63 0 -115.5 -21.5t-89 -60.5t-57 -92.5t-20.5 -114.5zM244 1024v14q29 0 39 7.5t10 19.5v256q0 12 -10.5 17t-38.5 5v17h147q84 0 115 -23.5t31 -56.5 t-20.5 -53.5t-74.5 -28.5v-4q47 -4 63.5 -21.5t20.5 -50.5l4 -45q2 -23 14.5 -31t37.5 -8v-14q-10 -2 -20.5 -3t-22.5 -1q-47 0 -60.5 14.5t-15.5 48.5l-2 37q-2 37 -18.5 51.5t-55.5 14.5h-29v-121q0 -14 10.5 -20.5t39.5 -6.5v-14h-164zM358 1202h31q45 0 61.5 17.5 t16.5 58.5q0 35 -18.5 50t-63.5 15h-27v-141z" />
<glyph unicode="&#xaf;" horiz-adv-x="657" d="M72 1157v92h514v-92h-514z" />
<glyph unicode="&#xb0;" horiz-adv-x="782" d="M88 1171q0 61 22.5 115.5t63.5 94.5t96.5 62.5t120.5 22.5q68 0 124 -21.5t95 -60t60.5 -92t21.5 -114.5t-22.5 -115.5t-62.5 -94.5t-94 -63.5t-120 -23.5q-70 0 -126 22.5t-96 61.5t-61.5 92t-21.5 114zM227 1176q0 -129 46 -192.5t122 -63.5q78 0 119 62t41 192 q0 129 -46 191t-124 62q-76 0 -117 -61t-41 -190z" />
<glyph unicode="&#xb2;" horiz-adv-x="1144" d="M104 0v143l328 267q104 84 173 153.5t109 138t56 140t16 159.5q0 178 -68.5 254t-180.5 76q-35 0 -73 -9t-72 -25.5t-60.5 -40t-42.5 -52.5q61 -29 89 -64.5t28 -90.5q0 -59 -36 -106.5t-108 -47.5q-70 0 -110.5 46t-40.5 112q0 72 37.5 130t101 99t144.5 63.5t169 22.5 q117 0 204 -28.5t146.5 -79t89 -117t29.5 -142.5q0 -68 -24.5 -128t-80 -124.5t-145.5 -138t-221 -170.5l-317 -237v-10h532q55 0 93 8t65 31.5t48.5 66.5t43.5 111l27 -2l-6 -408h-943z" />
<glyph unicode="&#xb3;" horiz-adv-x="1138" d="M76 240q0 66 40 110.5t107 44.5q68 0 101.5 -44t33.5 -97t-29.5 -89t-64.5 -54q27 -41 99.5 -74t171.5 -33q145 0 211.5 85t66.5 259q0 160 -84 237t-280 77h-60v45h37q102 0 171 20.5t108.5 62t56 104t16.5 144.5q0 154 -62.5 223.5t-191.5 69.5q-72 0 -134 -28.5 t-97 -73.5q35 -12 68.5 -50t33.5 -92q0 -53 -33.5 -98t-99.5 -45t-105.5 42t-39.5 101q0 63 34.5 114.5t94 88.5t139.5 57.5t170 20.5q117 0 205 -24.5t146.5 -67.5t88 -102.5t29.5 -129.5q0 -55 -23.5 -108t-76 -100.5t-135 -84t-199.5 -61.5v-6q225 -8 347 -93t122 -235 q0 -82 -34 -153.5t-100.5 -123.5t-164.5 -82t-228 -30q-92 0 -175 19.5t-145 54.5t-99 86.5t-37 112.5z" />
<glyph unicode="&#xb4;" horiz-adv-x="487" d="M102 1090l97 260q29 88 55.5 128t73.5 40q41 0 68.5 -27t27.5 -66q0 -31 -25.5 -65.5t-79.5 -87.5l-190 -182h-27z" />
<glyph unicode="&#xb6;" horiz-adv-x="1378" d="M111 844q0 106 43 196t124.5 156t202.5 102.5t275 36.5h542v-26q-76 -4 -123 -10.5t-73.5 -19.5t-35.5 -33.5t-9 -53.5v-1417h-53v1519h-189v-1519h-55v575q-139 4 -258 38t-206 97.5t-136 153.5t-49 205z" />
<glyph unicode="&#xb7;" horiz-adv-x="477" d="M100 666q0 55 40 96t100 41q59 0 98 -40t39 -97q0 -55 -40 -96.5t-99 -41.5t-98.5 40.5t-39.5 97.5z" />
<glyph unicode="&#x2219;" horiz-adv-x="477" d="M100 666q0 55 40 96t100 41q59 0 98 -40t39 -97q0 -55 -40 -96.5t-99 -41.5t-98.5 40.5t-39.5 97.5z" />
<glyph unicode="&#xb8;" horiz-adv-x="577" d="M18 -436l21 33q41 -27 82 -38.5t78 -11.5q59 0 87.5 31t28.5 84t-43 84t-112 31q-33 0 -76 -13l-12 19l250 227h53l-150 -139l4 -6q127 -2 181.5 -57.5t54.5 -122.5q0 -78 -64.5 -130.5t-171.5 -52.5q-57 0 -109.5 13.5t-101.5 48.5z" />
<glyph unicode="&#xb9;" horiz-adv-x="870" d="M74 1307v24l489 41v-1216q0 -72 55.5 -99.5t202.5 -29.5v-27h-743v27q143 2 199.5 29.5t56.5 99.5v985q0 47 -9.5 77.5t-37 49t-78.5 28t-135 11.5z" />
<glyph unicode="&#xba;" horiz-adv-x="921" d="M90 1047q0 84 28.5 152.5t79 117.5t118 75.5t147.5 26.5q82 0 149.5 -26.5t116.5 -73.5t75.5 -114.5t26.5 -151.5q0 -82 -28.5 -150.5t-77.5 -118t-116.5 -76t-145.5 -26.5q-82 0 -150.5 25.5t-118 73.5t-77 116t-27.5 150zM285 1051q0 -176 46 -256t138 -80 q88 0 128 79.5t40 256.5q0 176 -45 254.5t-137 78.5t-131 -78.5t-39 -254.5z" />
<glyph unicode="&#xbb;" horiz-adv-x="1036" d="M96 76l264 383l-264 387l25 16l383 -348q29 -25 35 -35t6 -20t-6.5 -20.5t-34.5 -32.5l-383 -349zM510 76l266 383l-266 387l25 16l385 -348q27 -25 34 -35t7 -20t-7.5 -20.5t-33.5 -32.5l-385 -349z" />
<glyph unicode="&#xbf;" horiz-adv-x="985" d="M39 330q0 162 130 266t368 158v301h55v-328q-94 -27 -155.5 -62.5t-96.5 -84t-48 -109.5t-13 -141q0 -172 69.5 -249t194.5 -77q84 0 147.5 35t91.5 84q-61 16 -92 56t-31 93q0 55 36 101.5t108 46.5q66 0 108.5 -46t42.5 -112t-34.5 -120t-94 -93t-140.5 -60.5 t-173 -21.5q-113 0 -201 30t-148.5 79t-92 114.5t-31.5 139.5zM420 1346q0 57 40 97t99 40t99 -40t40 -95q0 -57 -40 -97.5t-99 -40.5t-99 40.5t-40 95.5z" />
<glyph unicode="&#xc0;" horiz-adv-x="1404" d="M-59 0v27q49 14 89 37.5t74.5 62.5t66.5 97.5t65 140.5l434 1103h86l456 -1245q20 -51 38 -86t43.5 -56.5t63.5 -33.5t97 -20v-27h-672v27q74 4 117 14t63.5 30.5t19.5 50.5t-17 73l-123 352h-486l-67 -178q-35 -90 -45.5 -150.5t5 -99.5t57.5 -59.5t112 -32.5v-27h-477z M373 588h452l-8 25q-8 26 -23.5 69t-34 97.5t-38.5 111.5q-47 133 -107 301h-8zM477 1917q0 39 27.5 65.5t68.5 26.5q47 0 74 -40t55 -128l97 -260h-29l-188 182q-53 53 -79 88t-26 66z" />
<glyph unicode="&#xc1;" horiz-adv-x="1404" d="M-59 0v27q49 14 89 37.5t74.5 62.5t66.5 97.5t65 140.5l434 1103h86l456 -1245q20 -51 38 -86t43.5 -56.5t63.5 -33.5t97 -20v-27h-672v27q74 4 117 14t63.5 30.5t19.5 50.5t-17 73l-123 352h-486l-67 -178q-35 -90 -45.5 -150.5t5 -99.5t57.5 -59.5t112 -32.5v-27h-477z M373 588h452l-8 25q-8 26 -23.5 69t-34 97.5t-38.5 111.5q-47 133 -107 301h-8zM637 1581l96 260q29 88 55.5 128t73.5 40q41 0 68.5 -26.5t27.5 -65.5q0 -31 -25.5 -65.5t-78.5 -88.5l-190 -182h-27z" />
<glyph unicode="&#xc2;" horiz-adv-x="1404" d="M-59 0v27q49 14 89 37.5t74.5 62.5t66.5 97.5t65 140.5l434 1103h86l456 -1245q20 -51 38 -86t43.5 -56.5t63.5 -33.5t97 -20v-27h-672v27q74 4 117 14t63.5 30.5t19.5 50.5t-17 73l-123 352h-486l-67 -178q-35 -90 -45.5 -150.5t5 -99.5t57.5 -59.5t112 -32.5v-27h-477z M373 588h452l-8 25q-8 26 -23.5 69t-34 97.5t-38.5 111.5q-47 133 -107 301h-8zM408 1579l274 393h27l260 -393h-33l-248 190l-248 -190h-32z" />
<glyph unicode="&#xc3;" horiz-adv-x="1404" d="M-59 0v27q49 14 89 37.5t74.5 62.5t66.5 97.5t65 140.5l434 1103h86l456 -1245q20 -51 38 -86t43.5 -56.5t63.5 -33.5t97 -20v-27h-672v27q74 4 117 14t63.5 30.5t19.5 50.5t-17 73l-123 352h-486l-67 -178q-35 -90 -45.5 -150.5t5 -99.5t57.5 -59.5t112 -32.5v-27h-477z M373 588h452l-8 25q-8 26 -23.5 69t-34 97.5t-38.5 111.5q-47 133 -107 301h-8zM377 1587q18 135 64 199.5t134 64.5q37 0 80 -16t86 -34.5t82 -35t68 -16.5t56.5 25.5t45.5 97.5h33q-18 -135 -65.5 -199.5t-133.5 -64.5q-37 0 -79.5 16t-86 34.5t-82 35t-67.5 16.5 t-55.5 -25.5t-46.5 -97.5h-33z" />
<glyph unicode="&#xc4;" horiz-adv-x="1404" d="M-59 0v27q49 14 89 37.5t74.5 62.5t66.5 97.5t65 140.5l434 1103h86l456 -1245q20 -51 38 -86t43.5 -56.5t63.5 -33.5t97 -20v-27h-672v27q74 4 117 14t63.5 30.5t19.5 50.5t-17 73l-123 352h-486l-67 -178q-35 -90 -45.5 -150.5t5 -99.5t57.5 -59.5t112 -32.5v-27h-477z M373 588h452l-8 25q-8 26 -23.5 69t-34 97.5t-38.5 111.5q-47 133 -107 301h-8zM389 1769q0 55 35 93.5t90 38.5q57 0 92 -38t35 -94q0 -53 -35 -91t-92 -38q-55 0 -90 38t-35 91zM768 1769q0 55 36 93.5t91 38.5t91 -38t36 -94q0 -53 -36 -91t-91 -38t-91 38t-36 91z" />
<glyph unicode="&#xc5;" horiz-adv-x="1404" d="M-59 0v27q49 14 89 37.5t74.5 62.5t66.5 97.5t65 140.5l419 1069q-84 16 -131 73.5t-47 134.5q0 90 62.5 151.5t167.5 61.5q106 0 168.5 -61t62.5 -152q0 -76 -45 -133t-127 -73l446 -1213q20 -51 38 -86t43.5 -56.5t63.5 -33.5t97 -20v-27h-672v27q74 4 117 14 t63.5 30.5t19.5 50.5t-17 73l-123 352h-486l-67 -178q-35 -90 -45.5 -150.5t5 -99.5t57.5 -59.5t112 -32.5v-27h-477zM373 588h452l-8 25q-8 26 -23.5 69t-34 97.5t-38.5 111.5q-47 133 -107 301h-8zM594 1642q0 -86 29.5 -133t85.5 -47q55 0 83.5 47t28.5 133 q0 94 -28.5 137.5t-85.5 43.5q-55 0 -84 -43.5t-29 -137.5z" />
<glyph unicode="&#xc6;" horiz-adv-x="2125" d="M-86 0v27q109 27 202 113.5t179 221.5l557 865q25 39 29 67.5t-17.5 49t-72 35t-134.5 22.5v26h1299l6 -460l-29 -4q-45 109 -87 189.5t-94 132.5t-117.5 78t-157.5 26h-246v-629h110q63 0 112.5 13t87.5 46t65.5 87.5t48.5 135.5h26v-602h-26q-20 82 -48 136.5t-66 86 t-87 45t-113 13.5h-110v-682h242q109 0 185.5 26.5t134.5 82t105.5 140.5t94.5 201l28 -2l-10 -487h-1243v27q68 2 111 12t67.5 26.5t34.5 41t10 55.5v413h-499l-158 -249q-37 -57 -59.5 -106.5t-21.5 -88.5t32.5 -65.5t103.5 -38.5v-27h-475zM518 616h473v736h-8z" />
<glyph unicode="&#xc7;" horiz-adv-x="1458" d="M90 694q0 170 58.5 310.5t160 243t237.5 158.5t292 56q113 0 205 -23.5t163 -60.5l90 97h21v-496h-27q-86 217 -199.5 330.5t-279.5 113.5q-92 0 -174 -42t-143.5 -129t-97.5 -221t-36 -318q0 -178 44.5 -305t116 -208t161.5 -119t180 -38q86 0 161 26.5t137.5 75 t111.5 111.5t82 137l35 -18q-31 -72 -78 -141.5t-112.5 -126t-150.5 -94.5t-194 -46l-125 -117l4 -6q127 -2 181.5 -57t54.5 -123q0 -78 -64.5 -130t-171.5 -52q-57 0 -109.5 13t-101.5 48l21 33q41 -27 82 -38t77 -11q59 0 88 30.5t29 84.5q0 53 -44 83.5t-111 30.5 q-33 0 -76 -12l-13 18l224 203q-162 0 -293 52.5t-223.5 147.5t-142.5 229t-50 300z" />
<glyph unicode="&#xc8;" horiz-adv-x="1425" d="M68 0v27q68 2 110.5 12t67 26.5t35 41t10.5 55.5v1106q0 61 -45 96t-178 39v24h1187l7 -460l-29 -4q-45 109 -87 189.5t-94.5 132.5t-118 78t-157.5 26h-246v-629h111q63 0 112.5 13t87.5 46t65.5 87.5t47.5 135.5h27v-602h-27q-20 82 -47.5 136.5t-65.5 86t-87 45 t-113 13.5h-111v-682h242q109 0 185.5 26.5t135 82t105.5 140.5t94 201l29 -2l-10 -487h-1243zM512 1917q0 39 27.5 65.5t68.5 26.5q47 0 74 -40t55 -128l97 -260h-29l-189 182q-53 53 -78.5 88t-25.5 66z" />
<glyph unicode="&#xc9;" horiz-adv-x="1425" d="M68 0v27q68 2 110.5 12t67 26.5t35 41t10.5 55.5v1106q0 61 -45 96t-178 39v24h1187l7 -460l-29 -4q-45 109 -87 189.5t-94.5 132.5t-118 78t-157.5 26h-246v-629h111q63 0 112.5 13t87.5 46t65.5 87.5t47.5 135.5h27v-602h-27q-20 82 -47.5 136.5t-65.5 86t-87 45 t-113 13.5h-111v-682h242q109 0 185.5 26.5t135 82t105.5 140.5t94 201l29 -2l-10 -487h-1243zM674 1581l96 260q29 88 55.5 128t73.5 40q41 0 68.5 -26.5t27.5 -65.5q0 -31 -25.5 -65.5t-78.5 -88.5l-191 -182h-26z" />
<glyph unicode="&#xca;" horiz-adv-x="1425" d="M68 0v27q68 2 110.5 12t67 26.5t35 41t10.5 55.5v1106q0 61 -45 96t-178 39v24h1187l7 -460l-29 -4q-45 109 -87 189.5t-94.5 132.5t-118 78t-157.5 26h-246v-629h111q63 0 112.5 13t87.5 46t65.5 87.5t47.5 135.5h27v-602h-27q-20 82 -47.5 136.5t-65.5 86t-87 45 t-113 13.5h-111v-682h242q109 0 185.5 26.5t135 82t105.5 140.5t94 201l29 -2l-10 -487h-1243zM422 1579l274 393h27l260 -393h-33l-248 190l-247 -190h-33z" />
<glyph unicode="&#xcb;" horiz-adv-x="1425" d="M68 0v27q68 2 110.5 12t67 26.5t35 41t10.5 55.5v1106q0 61 -45 96t-178 39v24h1187l7 -460l-29 -4q-45 109 -87 189.5t-94.5 132.5t-118 78t-157.5 26h-246v-629h111q63 0 112.5 13t87.5 46t65.5 87.5t47.5 135.5h27v-602h-27q-20 82 -47.5 136.5t-65.5 86t-87 45 t-113 13.5h-111v-682h242q109 0 185.5 26.5t135 82t105.5 140.5t94 201l29 -2l-10 -487h-1243zM414 1769q0 55 34.5 93.5t90.5 38.5q57 0 92 -38t35 -94q0 -53 -35 -91t-92 -38q-55 0 -90 38t-35 91zM793 1769q0 55 35.5 93.5t91.5 38.5q55 0 91 -38t36 -94q0 -53 -36 -91 t-91 -38t-91 38t-36 91z" />
<glyph unicode="&#xcc;" horiz-adv-x="860" d="M82 0v27q70 2 115 12t70.5 26.5t34.5 41t9 55.5v1106q0 31 -9 55.5t-34.5 40.5t-70.5 26.5t-115 12.5v24h696v-24q-70 -2 -115 -12.5t-70.5 -26.5t-34.5 -41t-9 -55v-1106q0 -31 9 -55.5t34.5 -41t71 -26.5t114.5 -12v-27h-696zM219 1917q0 39 27.5 65.5t68.5 26.5 q47 0 74 -40t55 -128l97 -260h-29l-188 182q-53 53 -79 88t-26 66z" />
<glyph unicode="&#xcd;" horiz-adv-x="860" d="M82 0v27q70 2 115 12t70.5 26.5t34.5 41t9 55.5v1106q0 31 -9 55.5t-34.5 40.5t-70.5 26.5t-115 12.5v24h696v-24q-70 -2 -115 -12.5t-70.5 -26.5t-34.5 -41t-9 -55v-1106q0 -31 9 -55.5t34.5 -41t71 -26.5t114.5 -12v-27h-696zM367 1581l96 260q29 88 55.5 128t73.5 40 q41 0 68.5 -26.5t27.5 -65.5q0 -31 -25.5 -65.5t-78.5 -88.5l-191 -182h-26z" />
<glyph unicode="&#xce;" horiz-adv-x="860" d="M82 0v27q70 2 115 12t70.5 26.5t34.5 41t9 55.5v1106q0 31 -9 55.5t-34.5 40.5t-70.5 26.5t-115 12.5v24h696v-24q-70 -2 -115 -12.5t-70.5 -26.5t-34.5 -41t-9 -55v-1106q0 -31 9 -55.5t34.5 -41t71 -26.5t114.5 -12v-27h-696zM150 1579l274 393h27l260 -393h-33 l-248 190l-248 -190h-32z" />
<glyph unicode="&#xcf;" horiz-adv-x="860" d="M82 0v27q70 2 115 12t70.5 26.5t34.5 41t9 55.5v1106q0 31 -9 55.5t-34.5 40.5t-70.5 26.5t-115 12.5v24h696v-24q-70 -2 -115 -12.5t-70.5 -26.5t-34.5 -41t-9 -55v-1106q0 -31 9 -55.5t34.5 -41t71 -26.5t114.5 -12v-27h-696zM117 1769q0 55 34.5 93.5t90.5 38.5 q57 0 92 -38t35 -94q0 -53 -35 -91t-92 -38q-55 0 -90 38t-35 91zM496 1769q0 55 35.5 93.5t91.5 38.5q55 0 91 -38t36 -94q0 -53 -36 -91t-91 -38t-91 38t-36 91z" />
<glyph unicode="&#xd0;" horiz-adv-x="1591" d="M88 0v27q68 2 111 12t67.5 26.5t34.5 41t10 55.5v555h-211v53h211v498q0 61 -45 96t-178 39v24h641q190 0 334.5 -52t242 -144t146.5 -218t49 -274q0 -141 -43 -275t-134 -236.5t-232.5 -165t-337.5 -62.5h-666zM551 39h137q154 0 258.5 32.5t167 111.5t90 211t27.5 329 q0 201 -33 329t-100.5 203.5t-168 104.5t-235.5 29h-143v-619h278v-53h-278v-678z" />
<glyph unicode="&#xd1;" horiz-adv-x="1628" d="M68 0v27q72 12 120 34.5t76.5 59.5t40.5 91t12 130v825q0 47 -14 89t-45 74t-78 51.5t-112 21.5v24h436l813 -1081h2v741q0 76 -14.5 130.5t-46 92.5t-84 60.5t-130.5 32.5v24h564v-24q-72 -12 -119 -34.5t-73.5 -59.5t-37 -91.5t-10.5 -130.5v-1118h-68l-931 1229h-2 v-856q0 -76 11 -130t41 -92t81 -60.5t129 -32.5v-27h-561zM547 1587q18 135 64 199.5t134 64.5q37 0 80 -16t86 -34.5t82 -35t68 -16.5t56.5 25.5t45.5 97.5h33q-18 -135 -65.5 -199.5t-133.5 -64.5q-37 0 -80 16t-86 34.5t-81.5 35t-67.5 16.5t-55.5 -25.5t-46.5 -97.5h-33 z" />
<glyph unicode="&#xd2;" horiz-adv-x="1566" d="M90 711q0 168 56.5 306t152.5 237.5t222 153.5t263 54q141 0 267.5 -53t220.5 -150.5t149.5 -234.5t55.5 -307q0 -168 -56.5 -307.5t-151.5 -237.5t-221 -152.5t-264 -54.5q-141 0 -268 53.5t-221 150.5t-149.5 234.5t-55.5 307.5zM362 715q0 -201 31 -337t88.5 -219 t136 -119t175.5 -36q96 0 171.5 36t130 119t83 219t28.5 335q0 201 -31.5 337t-88 219t-136.5 118.5t-176 35.5t-172 -35.5t-129 -118.5t-82 -218t-29 -336zM553 1917q0 39 27.5 65.5t68.5 26.5q47 0 74 -40t55 -128l96 -260h-28l-189 182q-53 53 -78.5 88t-25.5 66z" />
<glyph unicode="&#xd3;" horiz-adv-x="1566" d="M90 711q0 168 56.5 306t152.5 237.5t222 153.5t263 54q141 0 267.5 -53t220.5 -150.5t149.5 -234.5t55.5 -307q0 -168 -56.5 -307.5t-151.5 -237.5t-221 -152.5t-264 -54.5q-141 0 -268 53.5t-221 150.5t-149.5 234.5t-55.5 307.5zM362 715q0 -201 31 -337t88.5 -219 t136 -119t175.5 -36q96 0 171.5 36t130 119t83 219t28.5 335q0 201 -31.5 337t-88 219t-136.5 118.5t-176 35.5t-172 -35.5t-129 -118.5t-82 -218t-29 -336zM715 1581l96 260q29 88 55.5 128t73.5 40q41 0 68.5 -26.5t27.5 -65.5q0 -31 -25.5 -65.5t-78.5 -88.5l-191 -182 h-26z" />
<glyph unicode="&#xd4;" horiz-adv-x="1566" d="M90 711q0 168 56.5 306t152.5 237.5t222 153.5t263 54q141 0 267.5 -53t220.5 -150.5t149.5 -234.5t55.5 -307q0 -168 -56.5 -307.5t-151.5 -237.5t-221 -152.5t-264 -54.5q-141 0 -268 53.5t-221 150.5t-149.5 234.5t-55.5 307.5zM362 715q0 -201 31 -337t88.5 -219 t136 -119t175.5 -36q96 0 171.5 36t130 119t83 219t28.5 335q0 201 -31.5 337t-88 219t-136.5 118.5t-176 35.5t-172 -35.5t-129 -118.5t-82 -218t-29 -336zM504 1579l274 393h27l260 -393h-33l-248 190l-247 -190h-33z" />
<glyph unicode="&#xd5;" horiz-adv-x="1566" d="M90 711q0 168 56.5 306t152.5 237.5t222 153.5t263 54q141 0 267.5 -53t220.5 -150.5t149.5 -234.5t55.5 -307q0 -168 -56.5 -307.5t-151.5 -237.5t-221 -152.5t-264 -54.5q-141 0 -268 53.5t-221 150.5t-149.5 234.5t-55.5 307.5zM362 715q0 -201 31 -337t88.5 -219 t136 -119t175.5 -36q96 0 171.5 36t130 119t83 219t28.5 335q0 201 -31.5 337t-88 219t-136.5 118.5t-176 35.5t-172 -35.5t-129 -118.5t-82 -218t-29 -336zM487 1587q18 135 64.5 199.5t134.5 64.5q37 0 80 -16t86 -34.5t82 -35t67 -16.5q29 0 56.5 25.5t46.5 97.5h33 q-18 -135 -65.5 -199.5t-133.5 -64.5q-37 0 -80 16t-86 34.5t-82 35t-67 16.5q-29 0 -55.5 -25.5t-47.5 -97.5h-33z" />
<glyph unicode="&#xd6;" horiz-adv-x="1566" d="M90 711q0 168 56.5 306t152.5 237.5t222 153.5t263 54q141 0 267.5 -53t220.5 -150.5t149.5 -234.5t55.5 -307q0 -168 -56.5 -307.5t-151.5 -237.5t-221 -152.5t-264 -54.5q-141 0 -268 53.5t-221 150.5t-149.5 234.5t-55.5 307.5zM362 715q0 -201 31 -337t88.5 -219 t136 -119t175.5 -36q96 0 171.5 36t130 119t83 219t28.5 335q0 201 -31.5 337t-88 219t-136.5 118.5t-176 35.5t-172 -35.5t-129 -118.5t-82 -218t-29 -336zM469 1769q0 55 35 93.5t90 38.5q57 0 92 -38t35 -94q0 -53 -35 -91t-92 -38q-55 0 -90 38t-35 91zM848 1769 q0 55 36 93.5t91 38.5t91 -38t36 -94q0 -53 -36 -91t-91 -38t-91 38t-36 91z" />
<glyph unicode="&#xd8;" horiz-adv-x="1566" d="M90 711q0 172 56.5 310t152.5 236.5t222 151.5t263 53q123 0 234.5 -40t202.5 -113l168 204h67l-194 -241q98 -98 156.5 -236.5t58.5 -318.5q0 -172 -56.5 -310.5t-151.5 -236.5t-221 -151.5t-264 -53.5q-129 0 -243.5 42t-206.5 120q2 0 -22.5 -29.5t-53.5 -64.5 q-35 -41 -78 -96h-69l184 227q-94 98 -149.5 235.5t-55.5 311.5zM362 715q0 -250 50 -408l716 887q-55 127 -146 178t-208 51q-96 0 -172 -34.5t-129 -116.5t-82 -218t-29 -339zM432 248q55 -135 147.5 -189.5t213.5 -54.5q96 0 171.5 35t130 117t83 218t28.5 339 q0 268 -55 424z" />
<glyph unicode="&#xd9;" horiz-adv-x="1617" d="M45 1403v24h670v-24q-66 -2 -106 -11.5t-62.5 -26.5t-30.5 -41t-8 -56v-826q0 -117 32.5 -194.5t89 -125.5t132.5 -67.5t162 -19.5q78 0 146.5 23.5t115.5 70.5q53 53 83.5 134t30.5 198v626q0 76 -13 130.5t-46 92.5t-85 60.5t-130 32.5v24h565v-24q-72 -12 -119 -34.5 t-73.5 -59.5t-36.5 -91.5t-10 -130.5v-643q0 -106 -31 -195t-95.5 -151.5t-163.5 -97.5t-237 -35q-268 0 -412.5 114t-144.5 337v852q0 31 -10 55.5t-35.5 40.5t-68.5 26.5t-109 12.5zM614 1917q0 39 28 65.5t69 26.5q47 0 73.5 -40t55.5 -128l96 -260h-29l-188 182 q-53 53 -79 88t-26 66z" />
<glyph unicode="&#xda;" horiz-adv-x="1617" d="M45 1403v24h670v-24q-66 -2 -106 -11.5t-62.5 -26.5t-30.5 -41t-8 -56v-826q0 -117 32.5 -194.5t89 -125.5t132.5 -67.5t162 -19.5q78 0 146.5 23.5t115.5 70.5q53 53 83.5 134t30.5 198v626q0 76 -13 130.5t-46 92.5t-85 60.5t-130 32.5v24h565v-24q-72 -12 -119 -34.5 t-73.5 -59.5t-36.5 -91.5t-10 -130.5v-643q0 -106 -31 -195t-95.5 -151.5t-163.5 -97.5t-237 -35q-268 0 -412.5 114t-144.5 337v852q0 31 -10 55.5t-35.5 40.5t-68.5 26.5t-109 12.5zM801 1581l96 260q29 88 55.5 128t73.5 40q41 0 68.5 -26.5t27.5 -65.5 q0 -31 -25.5 -65.5t-78.5 -88.5l-191 -182h-26z" />
<glyph unicode="&#xdb;" horiz-adv-x="1617" d="M45 1403v24h670v-24q-66 -2 -106 -11.5t-62.5 -26.5t-30.5 -41t-8 -56v-826q0 -117 32.5 -194.5t89 -125.5t132.5 -67.5t162 -19.5q78 0 146.5 23.5t115.5 70.5q53 53 83.5 134t30.5 198v626q0 76 -13 130.5t-46 92.5t-85 60.5t-130 32.5v24h565v-24q-72 -12 -119 -34.5 t-73.5 -59.5t-36.5 -91.5t-10 -130.5v-643q0 -106 -31 -195t-95.5 -151.5t-163.5 -97.5t-237 -35q-268 0 -412.5 114t-144.5 337v852q0 31 -10 55.5t-35.5 40.5t-68.5 26.5t-109 12.5zM604 1579l275 393h26l260 -393h-32l-248 190l-248 -190h-33z" />
<glyph unicode="&#xdc;" horiz-adv-x="1617" d="M45 1403v24h670v-24q-66 -2 -106 -11.5t-62.5 -26.5t-30.5 -41t-8 -56v-826q0 -117 32.5 -194.5t89 -125.5t132.5 -67.5t162 -19.5q78 0 146.5 23.5t115.5 70.5q53 53 83.5 134t30.5 198v626q0 76 -13 130.5t-46 92.5t-85 60.5t-130 32.5v24h565v-24q-72 -12 -119 -34.5 t-73.5 -59.5t-36.5 -91.5t-10 -130.5v-643q0 -106 -31 -195t-95.5 -151.5t-163.5 -97.5t-237 -35q-268 0 -412.5 114t-144.5 337v852q0 31 -10 55.5t-35.5 40.5t-68.5 26.5t-109 12.5zM539 1769q0 55 34.5 93.5t90.5 38.5q57 0 92 -38t35 -94q0 -53 -35 -91t-92 -38 q-55 0 -90 38t-35 91zM918 1769q0 55 35.5 93.5t90.5 38.5t91 -38t36 -94q0 -53 -35.5 -91t-91.5 -38q-55 0 -90.5 38t-35.5 91z" />
<glyph unicode="&#xdd;" horiz-adv-x="1386" d="M-14 1403v24h659v-24q-76 -4 -118 -17.5t-57 -36t-8 -53t30 -71.5l299 -541l266 465q37 61 51 103t4 72t-48 47.5t-110 29.5v26h473v-24q-51 -8 -92 -24.5t-78.5 -48.5t-75.5 -82t-83 -130l-281 -481v-475q0 -31 9.5 -55.5t35 -41t70.5 -26.5t115 -12v-27h-697v27 q72 2 116 12t69.5 26.5t35 41t9.5 55.5v434l-361 637q-23 41 -45 68.5t-49 47t-59.5 32t-79.5 22.5zM729 1581l96 260q29 88 55.5 128t73.5 40q41 0 69 -26.5t28 -65.5q0 -31 -26 -65.5t-79 -88.5l-190 -182h-27z" />
<glyph unicode="&#xde;" horiz-adv-x="1343" d="M68 0v27q68 2 110.5 12t67 26.5t35 41t10.5 55.5v1106q0 31 -10.5 55.5t-35 41.5t-67.5 26.5t-110 11.5v24h700v-24q-74 -2 -120 -11.5t-71.5 -25.5t-36 -41t-10.5 -59v-136h146q170 0 282.5 -29.5t182 -82.5t98.5 -125t29 -156q0 -78 -31 -150.5t-101.5 -130t-185 -91 t-284.5 -33.5h-136v-170q0 -33 10.5 -57.5t36 -41t71.5 -25.5t120 -11v-27h-700zM530 371h138q104 0 170.5 23.5t104.5 69.5t51.5 114.5t13.5 156.5q0 76 -14.5 141.5t-51.5 112.5t-101.5 75t-164.5 28h-146v-721z" />
<glyph unicode="&#xdf;" horiz-adv-x="1210" d="M33 872v25l176 45v82q0 221 107.5 339t322.5 118q199 0 300 -79t101 -200q0 -37 -12 -69.5t-37.5 -65.5t-66.5 -67.5t-99 -75.5q-57 -41 -77.5 -71t-20.5 -71q0 -33 16.5 -59.5t44 -50t63.5 -44t73 -42.5q49 -27 93 -56.5t78.5 -64.5t55 -79t20.5 -101 q0 -55 -21.5 -110.5t-63.5 -99.5t-103 -71t-139 -27q-57 0 -111.5 13.5t-94.5 39t-64.5 61.5t-24.5 81t26.5 79t79.5 34q49 0 75 -32t26 -73q0 -31 -20.5 -56.5t-49.5 -45.5q20 -29 63.5 -46.5t102.5 -17.5q82 0 125 46t43 122q0 78 -56.5 130.5t-146.5 99.5 q-51 29 -94 56.5t-71.5 59t-45 69.5t-16.5 87q0 53 30.5 99t96.5 108q37 33 59.5 62.5t34.5 63.5t16 72.5t4 90.5q0 135 -54 199.5t-154 64.5q-104 0 -151.5 -64.5t-47.5 -232.5v-1147h-361v25q88 2 117 16t29 63v768h-176z" />
<glyph unicode="&#xe0;" d="M82 211q0 61 28.5 117.5t94.5 91.5q57 31 125.5 50t132 31.5t113 21.5t67.5 18v145q0 117 -38 173t-128 56q-53 0 -97 -15t-73 -44q25 -25 40 -52.5t15 -60.5q0 -53 -31.5 -86.5t-90.5 -33.5q-53 0 -86 35.5t-33 84.5q0 92 103.5 150.5t277.5 58.5t264 -69.5t90 -229.5 v-481q0 -76 33 -102.5t123 8.5l8 -21q-53 -33 -98 -51t-99 -18q-86 0 -123.5 36.5t-46.5 120.5h-8q-59 -68 -132 -113.5t-169 -45.5q-68 0 -118 19.5t-81.5 51t-47 71.5t-15.5 83zM242 1425q0 39 27.5 66t68.5 27q47 0 73.5 -40t55.5 -128l96 -260h-28l-189 182 q-53 53 -78.5 87.5t-25.5 65.5zM311 246q0 -72 37 -120t115 -48q55 0 102 36t78 79v307q-102 -20 -166.5 -43t-101.5 -51.5t-50.5 -67.5t-13.5 -92z" />
<glyph unicode="&#xe1;" d="M82 211q0 61 28.5 117.5t94.5 91.5q57 31 125.5 50t132 31.5t113 21.5t67.5 18v145q0 117 -38 173t-128 56q-53 0 -97 -15t-73 -44q25 -25 40 -52.5t15 -60.5q0 -53 -31.5 -86.5t-90.5 -33.5q-53 0 -86 35.5t-33 84.5q0 92 103.5 150.5t277.5 58.5t264 -69.5t90 -229.5 v-481q0 -76 33 -102.5t123 8.5l8 -21q-53 -33 -98 -51t-99 -18q-86 0 -123.5 36.5t-46.5 120.5h-8q-59 -68 -132 -113.5t-169 -45.5q-68 0 -118 19.5t-81.5 51t-47 71.5t-15.5 83zM311 246q0 -72 37 -120t115 -48q55 0 102 36t78 79v307q-102 -20 -166.5 -43t-101.5 -51.5 t-50.5 -67.5t-13.5 -92zM449 1090l96 260q29 88 55.5 128t73.5 40q41 0 68.5 -27t27.5 -66q0 -31 -25.5 -65.5t-78.5 -87.5l-191 -182h-26z" />
<glyph unicode="&#xe2;" d="M82 211q0 61 28.5 117.5t94.5 91.5q57 31 125.5 50t132 31.5t113 21.5t67.5 18v145q0 117 -38 173t-128 56q-53 0 -97 -15t-73 -44q25 -25 40 -52.5t15 -60.5q0 -53 -31.5 -86.5t-90.5 -33.5q-53 0 -86 35.5t-33 84.5q0 92 103.5 150.5t277.5 58.5t264 -69.5t90 -229.5 v-481q0 -76 33 -102.5t123 8.5l8 -21q-53 -33 -98 -51t-99 -18q-86 0 -123.5 36.5t-46.5 120.5h-8q-59 -68 -132 -113.5t-169 -45.5q-68 0 -118 19.5t-81.5 51t-47 71.5t-15.5 83zM231 1087l275 394h26l261 -394h-33l-248 191l-248 -191h-33zM311 246q0 -72 37 -120t115 -48 q55 0 102 36t78 79v307q-102 -20 -166.5 -43t-101.5 -51.5t-50.5 -67.5t-13.5 -92z" />
<glyph unicode="&#xe3;" d="M82 211q0 61 28.5 117.5t94.5 91.5q57 31 125.5 50t132 31.5t113 21.5t67.5 18v145q0 117 -38 173t-128 56q-53 0 -97 -15t-73 -44q25 -25 40 -52.5t15 -60.5q0 -53 -31.5 -86.5t-90.5 -33.5q-53 0 -86 35.5t-33 84.5q0 92 103.5 150.5t277.5 58.5t264 -69.5t90 -229.5 v-481q0 -76 33 -102.5t123 8.5l8 -21q-53 -33 -98 -51t-99 -18q-86 0 -123.5 36.5t-46.5 120.5h-8q-59 -68 -132 -113.5t-169 -45.5q-68 0 -118 19.5t-81.5 51t-47 71.5t-15.5 83zM195 1096q18 135 64 199.5t134 64.5q37 0 80 -16.5t86 -35t82 -35t68 -16.5t56.5 26t45.5 97 h33q-18 -135 -65.5 -199.5t-133.5 -64.5q-37 0 -80 16.5t-86 35t-82 35t-67 16.5q-29 0 -55.5 -26t-47.5 -97h-32zM311 246q0 -72 37 -120t115 -48q55 0 102 36t78 79v307q-102 -20 -166.5 -43t-101.5 -51.5t-50.5 -67.5t-13.5 -92z" />
<glyph unicode="&#xe4;" d="M82 211q0 61 28.5 117.5t94.5 91.5q57 31 125.5 50t132 31.5t113 21.5t67.5 18v145q0 117 -38 173t-128 56q-53 0 -97 -15t-73 -44q25 -25 40 -52.5t15 -60.5q0 -53 -31.5 -86.5t-90.5 -33.5q-53 0 -86 35.5t-33 84.5q0 92 103.5 150.5t277.5 58.5t264 -69.5t90 -229.5 v-481q0 -76 33 -102.5t123 8.5l8 -21q-53 -33 -98 -51t-99 -18q-86 0 -123.5 36.5t-46.5 120.5h-8q-59 -68 -132 -113.5t-169 -45.5q-68 0 -118 19.5t-81.5 51t-47 71.5t-15.5 83zM199 1278q0 55 34.5 93t90.5 38q57 0 92 -38t35 -93q0 -53 -35 -91t-92 -38q-55 0 -90 38 t-35 91zM311 246q0 -72 37 -120t115 -48q55 0 102 36t78 79v307q-102 -20 -166.5 -43t-101.5 -51.5t-50.5 -67.5t-13.5 -92zM578 1278q0 55 35.5 93t91.5 38q55 0 90.5 -38t35.5 -93q0 -53 -35.5 -91t-90.5 -38t-91 38t-36 91z" />
<glyph unicode="&#xe5;" d="M82 211q0 61 28.5 117.5t94.5 91.5q57 31 125.5 50t132 31.5t113 21.5t67.5 18v145q0 117 -38 173t-128 56q-53 0 -97 -15t-73 -44q25 -25 40 -52.5t15 -60.5q0 -53 -31.5 -86.5t-90.5 -33.5q-53 0 -86 35.5t-33 84.5q0 92 103.5 150.5t277.5 58.5t264 -69.5t90 -229.5 v-481q0 -76 33 -102.5t123 8.5l8 -21q-53 -33 -98 -51t-99 -18q-86 0 -123.5 36.5t-46.5 120.5h-8q-59 -68 -132 -113.5t-169 -45.5q-68 0 -118 19.5t-81.5 51t-47 71.5t-15.5 83zM283 1309q0 88 62.5 150.5t168.5 62.5t167.5 -61.5t61.5 -151.5t-61 -152.5t-168 -62.5 q-109 0 -170 62.5t-61 152.5zM311 246q0 -72 37 -120t115 -48q55 0 102 36t78 79v307q-102 -20 -166.5 -43t-101.5 -51.5t-50.5 -67.5t-13.5 -92zM399 1309q0 -86 30 -133.5t85 -47.5t84 47.5t29 133.5q0 94 -29 136t-86 42q-55 0 -84 -42t-29 -136z" />
<glyph unicode="&#xe6;" horiz-adv-x="1568" d="M82 211q0 61 28.5 117.5t94.5 91.5q55 31 128 50t140.5 31.5t119.5 21.5t71 18v145q0 117 -48.5 173t-138.5 56q-53 0 -97 -15t-73 -44q25 -25 40 -52.5t15 -60.5q0 -53 -31.5 -86.5t-90.5 -33.5q-53 0 -86 35.5t-33 84.5q0 92 103.5 150.5t277.5 58.5q221 0 299 -123 q59 59 139 91t166 32q102 0 180 -33.5t129 -92t73.5 -137.5t16.5 -171h-626q-6 -94 10 -178t56 -146.5t102.5 -98.5t150.5 -36q96 0 160.5 46.5t128.5 127.5l22 -16q-31 -49 -68.5 -93t-86.5 -77t-109.5 -51.5t-138.5 -18.5q-135 0 -236.5 59.5t-150.5 172.5h-8 q-53 -92 -150.5 -157.5t-218.5 -65.5q-68 0 -117 19.5t-80.5 51t-47 71.5t-15.5 83zM311 246q0 -72 37 -120t115 -48q55 0 113.5 37t87.5 90v295q-102 -20 -170 -43t-109 -51.5t-57.5 -67.5t-16.5 -92zM879 555h397q16 170 -26 265t-158 95q-92 0 -147.5 -90t-65.5 -270z " />
<glyph unicode="&#xe7;" horiz-adv-x="950" d="M66 446q0 115 37.5 208.5t104 159t157 102t194.5 36.5q90 0 155.5 -20.5t107.5 -53t62.5 -71.5t20.5 -74q0 -59 -30.5 -95t-86.5 -36q-63 0 -97 36t-34 87q0 43 21.5 74.5t44.5 44.5q-23 29 -61.5 50t-98.5 21q-115 0 -189.5 -112.5t-74.5 -317.5q0 -88 19.5 -164.5 t58.5 -135t98.5 -92.5t138.5 -34q90 0 156 41t129 121l23 -16q-53 -80 -125 -138.5t-181 -78.5l-137 -129l4 -6q125 -2 180.5 -57.5t55.5 -123.5q0 -78 -64.5 -130t-171.5 -52q-57 0 -109 13.5t-102 47.5l21 33q41 -27 82 -38t78 -11q59 0 87.5 31t28.5 84t-44 83.5 t-111 30.5q-33 0 -76 -12l-12 19l229 209q-10 -2 -20 -3h-21q-102 0 -185 35t-141.5 97.5t-90 148.5t-31.5 188z" />
<glyph unicode="&#xe8;" horiz-adv-x="991" d="M66 455q0 111 36.5 202t100 156.5t147.5 102t178 36.5q102 0 180 -33.5t129.5 -92t74 -137.5t16.5 -171h-629v-49q0 -90 20.5 -165t60.5 -129t100.5 -85t140.5 -31q96 0 160.5 46.5t127.5 127.5l23 -16q-31 -49 -69 -93t-87 -77t-109.5 -51.5t-138.5 -18.5 q-102 0 -187 35t-146.5 98.5t-95 151t-33.5 193.5zM262 1425q0 39 27.5 66t68.5 27q47 0 74 -40t55 -128l97 -260h-29l-188 182q-53 53 -79 87.5t-26 65.5zM301 555h397q16 170 -25.5 265t-158.5 95q-92 0 -147.5 -90t-65.5 -270z" />
<glyph unicode="&#xe9;" horiz-adv-x="991" d="M66 455q0 111 36.5 202t100 156.5t147.5 102t178 36.5q102 0 180 -33.5t129.5 -92t74 -137.5t16.5 -171h-629v-49q0 -90 20.5 -165t60.5 -129t100.5 -85t140.5 -31q96 0 160.5 46.5t127.5 127.5l23 -16q-31 -49 -69 -93t-87 -77t-109.5 -51.5t-138.5 -18.5 q-102 0 -187 35t-146.5 98.5t-95 151t-33.5 193.5zM301 555h397q16 170 -25.5 265t-158.5 95q-92 0 -147.5 -90t-65.5 -270zM461 1090l96 260q29 88 55.5 128t73.5 40q41 0 68.5 -27t27.5 -66q0 -31 -25.5 -65.5t-78.5 -87.5l-191 -182h-26z" />
<glyph unicode="&#xea;" horiz-adv-x="991" d="M66 455q0 111 36.5 202t100 156.5t147.5 102t178 36.5q102 0 180 -33.5t129.5 -92t74 -137.5t16.5 -171h-629v-49q0 -90 20.5 -165t60.5 -129t100.5 -85t140.5 -31q96 0 160.5 46.5t127.5 127.5l23 -16q-31 -49 -69 -93t-87 -77t-109.5 -51.5t-138.5 -18.5 q-102 0 -187 35t-146.5 98.5t-95 151t-33.5 193.5zM242 1087l274 394h27l260 -394h-33l-248 191l-248 -191h-32zM301 555h397q16 170 -25.5 265t-158.5 95q-92 0 -147.5 -90t-65.5 -270z" />
<glyph unicode="&#xeb;" horiz-adv-x="991" d="M66 455q0 111 36.5 202t100 156.5t147.5 102t178 36.5q102 0 180 -33.5t129.5 -92t74 -137.5t16.5 -171h-629v-49q0 -90 20.5 -165t60.5 -129t100.5 -85t140.5 -31q96 0 160.5 46.5t127.5 127.5l23 -16q-31 -49 -69 -93t-87 -77t-109.5 -51.5t-138.5 -18.5 q-102 0 -187 35t-146.5 98.5t-95 151t-33.5 193.5zM209 1278q0 55 35 93t90 38q57 0 92 -38t35 -93q0 -53 -35 -91t-92 -38q-55 0 -90 38t-35 91zM301 555h397q16 170 -25.5 265t-158.5 95q-92 0 -147.5 -90t-65.5 -270zM588 1278q0 55 35.5 93t91.5 38q55 0 91 -38t36 -93 q0 -53 -36 -91t-91 -38t-91 38t-36 91z" />
<glyph unicode="&#xec;" horiz-adv-x="598" d="M18 1425q0 39 28 66t69 27q47 0 73.5 -40t55.5 -128l96 -260h-29l-188 182q-53 53 -79 87.5t-26 65.5zM49 0v25q45 0 74 4t46 12t23.5 23.5t6.5 39.5v703q0 47 -30 73.5t-120 28.5v25l365 12v-842q0 -25 6 -40t22.5 -23t45 -12t75.5 -4v-25h-514z" />
<glyph unicode="&#xed;" horiz-adv-x="598" d="M49 0v25q45 0 74 4t46 12t23.5 23.5t6.5 39.5v703q0 47 -30 73.5t-120 28.5v25l365 12v-842q0 -25 6 -40t22.5 -23t45 -12t75.5 -4v-25h-514zM209 1090l96 260q29 88 55.5 128t73.5 40q41 0 68.5 -27t27.5 -66q0 -31 -25.5 -65.5t-78.5 -87.5l-190 -182h-27z" />
<glyph unicode="&#xee;" horiz-adv-x="598" d="M-8 1087l274 394h27l260 -394h-33l-248 191l-247 -191h-33zM49 0v25q45 0 74 4t46 12t23.5 23.5t6.5 39.5v703q0 47 -30 73.5t-120 28.5v25l365 12v-842q0 -25 6 -40t22.5 -23t45 -12t75.5 -4v-25h-514z" />
<glyph unicode="&#xef;" horiz-adv-x="598" d="M-35 1278q0 55 35 93t90 38q57 0 92 -38t35 -93q0 -53 -35 -91t-92 -38q-55 0 -90 38t-35 91zM49 0v25q45 0 74 4t46 12t23.5 23.5t6.5 39.5v703q0 47 -30 73.5t-120 28.5v25l365 12v-842q0 -25 6 -40t22.5 -23t45 -12t75.5 -4v-25h-514zM344 1278q0 55 36 93t91 38 t91 -38t36 -93q0 -53 -36 -91t-91 -38t-91 38t-36 91z" />
<glyph unicode="&#xf0;" horiz-adv-x="1093" d="M76 455q0 109 39 199.5t103.5 156.5t145 103.5t164.5 37.5q90 0 144.5 -33.5t89.5 -91.5l8 4q-12 100 -51 193.5t-109 177.5q2 0 -38 -18.5t-87 -40.5q-55 -27 -125 -62l-16 37l240 115q-117 127 -295 205l12 28q106 -29 204.5 -72.5t184.5 -109.5l199 96l16 -37 l-178 -86q133 -109 213 -263t80 -365q0 -152 -33 -272.5t-96.5 -204.5t-155.5 -129.5t-209 -45.5q-88 0 -170 36t-144 98.5t-99 151t-37 192.5zM313 463q0 -205 61.5 -326t186.5 -121q106 0 162.5 117t56.5 371q0 207 -57 309t-166 102q-106 0 -175 -109.5t-69 -342.5z" />
<glyph unicode="&#xf1;" horiz-adv-x="1161" d="M43 0v25q88 2 116.5 16t28.5 63v703q0 47 -28.5 73.5t-116.5 28.5v25l356 12v-219q70 111 160 168t195 57q123 0 187.5 -71.5t64.5 -212.5v-564q0 -49 28.5 -63t116.5 -16v-25h-483v25q72 2 97.5 16t25.5 63v521q0 111 -37 168t-129 57q-66 0 -123.5 -47t-98.5 -125v-574 q0 -49 26 -63t95 -16v-25h-481zM256 1096q18 135 64.5 199.5t134.5 64.5q37 0 80 -16.5t86 -35t81.5 -35t67.5 -16.5t56.5 26t45.5 97h33q-18 -135 -65 -199.5t-133 -64.5q-37 0 -80 16.5t-86 35t-82 35t-68 16.5t-55.5 -26t-46.5 -97h-33z" />
<glyph unicode="&#xf2;" horiz-adv-x="1087" d="M66 463q0 109 37.5 199t103 154.5t152.5 100t186 35.5q102 0 188 -33.5t150.5 -97t100.5 -152.5t36 -198q0 -111 -38 -201t-102.5 -155.5t-150.5 -101.5t-184 -36q-102 0 -190.5 35t-153 98.5t-100 152.5t-35.5 200zM274 1425q0 39 28 66t69 27q47 0 73.5 -40t55.5 -128 l96 -260h-29l-188 182q-53 53 -79 87.5t-26 65.5zM303 467q0 -240 65.5 -345.5t184.5 -105.5q115 0 172 105.5t57 345.5t-65.5 344t-181.5 104q-117 0 -174.5 -104t-57.5 -344z" />
<glyph unicode="&#xf3;" horiz-adv-x="1087" d="M66 463q0 109 37.5 199t103 154.5t152.5 100t186 35.5q102 0 188 -33.5t150.5 -97t100.5 -152.5t36 -198q0 -111 -38 -201t-102.5 -155.5t-150.5 -101.5t-184 -36q-102 0 -190.5 35t-153 98.5t-100 152.5t-35.5 200zM303 467q0 -240 65.5 -345.5t184.5 -105.5 q115 0 172 105.5t57 345.5t-65.5 344t-181.5 104q-117 0 -174.5 -104t-57.5 -344zM485 1090l97 260q29 88 55.5 128t73.5 40q41 0 68.5 -27t27.5 -66q0 -31 -25.5 -65.5t-79.5 -87.5l-190 -182h-27z" />
<glyph unicode="&#xf4;" horiz-adv-x="1087" d="M66 463q0 109 37.5 199t103 154.5t152.5 100t186 35.5q102 0 188 -33.5t150.5 -97t100.5 -152.5t36 -198q0 -111 -38 -201t-102.5 -155.5t-150.5 -101.5t-184 -36q-102 0 -190.5 35t-153 98.5t-100 152.5t-35.5 200zM268 1087l275 394h26l260 -394h-32l-248 191 l-248 -191h-33zM303 467q0 -240 65.5 -345.5t184.5 -105.5q115 0 172 105.5t57 345.5t-65.5 344t-181.5 104q-117 0 -174.5 -104t-57.5 -344z" />
<glyph unicode="&#xf5;" horiz-adv-x="1087" d="M66 463q0 109 37.5 199t103 154.5t152.5 100t186 35.5q102 0 188 -33.5t150.5 -97t100.5 -152.5t36 -198q0 -111 -38 -201t-102.5 -155.5t-150.5 -101.5t-184 -36q-102 0 -190.5 35t-153 98.5t-100 152.5t-35.5 200zM219 1096q18 135 64.5 199.5t134.5 64.5 q37 0 80 -16.5t86 -35t82 -35t67 -16.5q29 0 56.5 26t46.5 97h32q-18 -135 -65 -199.5t-133 -64.5q-37 0 -80 16.5t-86 35t-82 35t-68 16.5t-55.5 -26t-46.5 -97h-33zM303 467q0 -240 65.5 -345.5t184.5 -105.5q115 0 172 105.5t57 345.5t-65.5 344t-181.5 104 q-117 0 -174.5 -104t-57.5 -344z" />
<glyph unicode="&#xf6;" horiz-adv-x="1087" d="M66 463q0 109 37.5 199t103 154.5t152.5 100t186 35.5q102 0 188 -33.5t150.5 -97t100.5 -152.5t36 -198q0 -111 -38 -201t-102.5 -155.5t-150.5 -101.5t-184 -36q-102 0 -190.5 35t-153 98.5t-100 152.5t-35.5 200zM227 1278q0 55 35 93t90 38q57 0 92 -38t35 -93 q0 -53 -34.5 -91t-92.5 -38q-55 0 -90 38t-35 91zM303 467q0 -240 65.5 -345.5t184.5 -105.5q115 0 172 105.5t57 345.5t-65.5 344t-181.5 104q-117 0 -174.5 -104t-57.5 -344zM606 1278q0 55 36 93t91 38t91 -38t36 -93q0 -53 -36 -91t-91 -38t-91 38t-36 91z" />
<glyph unicode="&#xf8;" horiz-adv-x="1087" d="M66 463q0 109 37.5 199t103 154.5t152.5 100t186 35.5q168 0 286 -88q20 25 39 48.5t35 41.5q18 23 35 43h59q-37 -43 -65 -79l-45 -57q-20 -26 -23 -25q72 -66 113 -157t41 -208q0 -111 -38 -201t-102.5 -155.5t-150.5 -101.5t-184 -36q-174 0 -297 95l-98 -121h-60 l123 149q-70 66 -108.5 157t-38.5 206zM303 467q0 -68 5 -124t16 -103q119 145 211 258q39 49 76.5 95t66.5 82t47 57l18 22q-31 86 -84 123.5t-124 37.5q-117 0 -174.5 -104t-57.5 -344zM340 186q31 -90 85 -130t128 -40q115 0 172 105.5t57 345.5q0 137 -22 233l-19 -21 q-18 -22 -46.5 -57.5t-66.5 -81.5t-77 -96q-92 -113 -211 -258z" />
<glyph unicode="&#xf9;" horiz-adv-x="1142" d="M18 913v25l365 8v-629q0 -113 37 -170t129 -57q68 0 121 46t94 124v553q0 47 -29.5 72.5t-118.5 27.5v25l363 8v-846q0 -41 29.5 -57t117.5 -20v-23h-358v211q-137 -225 -340 -225q-121 0 -190.5 70.5t-69.5 213.5v543q0 47 -30 72.5t-120 27.5zM309 1425q0 39 28 66 t69 27q47 0 73.5 -40t55.5 -128l96 -260h-29l-188 182q-53 53 -79 87.5t-26 65.5z" />
<glyph unicode="&#xfa;" horiz-adv-x="1142" d="M18 913v25l365 8v-629q0 -113 37 -170t129 -57q68 0 121 46t94 124v553q0 47 -29.5 72.5t-118.5 27.5v25l363 8v-846q0 -41 29.5 -57t117.5 -20v-23h-358v211q-137 -225 -340 -225q-121 0 -190.5 70.5t-69.5 213.5v543q0 47 -30 72.5t-120 27.5zM455 1090l96 260 q29 88 55.5 128t73.5 40q41 0 68.5 -27t27.5 -66q0 -31 -25.5 -65.5t-78.5 -87.5l-191 -182h-26z" />
<glyph unicode="&#xfb;" horiz-adv-x="1142" d="M18 913v25l365 8v-629q0 -113 37 -170t129 -57q68 0 121 46t94 124v553q0 47 -29.5 72.5t-118.5 27.5v25l363 8v-846q0 -41 29.5 -57t117.5 -20v-23h-358v211q-137 -225 -340 -225q-121 0 -190.5 70.5t-69.5 213.5v543q0 47 -30 72.5t-120 27.5zM262 1087l275 394h26 l260 -394h-32l-248 191l-248 -191h-33z" />
<glyph unicode="&#xfc;" horiz-adv-x="1142" d="M18 913v25l365 8v-629q0 -113 37 -170t129 -57q68 0 121 46t94 124v553q0 47 -29.5 72.5t-118.5 27.5v25l363 8v-846q0 -41 29.5 -57t117.5 -20v-23h-358v211q-137 -225 -340 -225q-121 0 -190.5 70.5t-69.5 213.5v543q0 47 -30 72.5t-120 27.5zM227 1278q0 55 35 93 t90 38q57 0 92 -38t35 -93q0 -53 -34.5 -91t-92.5 -38q-55 0 -90 38t-35 91zM606 1278q0 55 36 93t91 38t91 -38t36 -93q0 -53 -36 -91t-91 -38t-91 38t-36 91z" />
<glyph unicode="&#xfd;" d="M-35 918v24h508v-24q-92 -6 -110.5 -38t6.5 -89l239 -574l185 469q25 61 30.5 102t-7.5 68t-47 41t-89 21v24h371v-24q-53 -6 -100.5 -49.5t-82.5 -125.5l-336 -817q-41 -98 -79.5 -163.5t-78.5 -104.5t-81 -54.5t-84 -15.5q-74 0 -117 43t-43 103q0 47 30 85t87 38 q47 0 81 -34t34 -87q0 -33 -12.5 -59.5t-32.5 -43.5q31 4 61.5 18.5t62 49.5t65.5 94.5t71 153.5l10 28l-14 34q-14 34 -40 90.5t-58 127t-66 144.5q-80 172 -178 393q-18 41 -36 67.5t-38.5 44t-47 27t-63.5 13.5zM541 1090l96 260q29 88 55.5 128t73.5 40q41 0 68.5 -27 t27.5 -66q0 -31 -25.5 -65.5t-78.5 -87.5l-191 -182h-26z" />
<glyph unicode="&#xfe;" horiz-adv-x="1105" d="M-27 1432v24l379 12v-643q63 55 137 91t170 36q90 0 161 -34.5t119 -96t72.5 -145.5t24.5 -182q0 -102 -30.5 -192.5t-88 -157t-138.5 -105.5t-181 -39q-78 0 -134 15.5t-112 43.5v-348q0 -25 8.5 -39t31 -22t60 -12.5t95.5 -4.5v-24h-555v24q45 0 72.5 4.5t44 12.5 t22.5 22.5t6 38.5v1616q0 27 -5 45.5t-22.5 31.5t-49.5 19.5t-87 8.5zM352 195q33 -86 87.5 -121t123.5 -35q119 0 179.5 113.5t60.5 328.5q0 84 -16.5 155t-47 122t-77 80.5t-107.5 29.5q-59 0 -105.5 -22.5t-97.5 -63.5v-587z" />
<glyph unicode="&#xff;" d="M-35 918v24h508v-24q-92 -6 -110.5 -38t6.5 -89l239 -574l185 469q25 61 30.5 102t-7.5 68t-47 41t-89 21v24h371v-24q-53 -6 -100.5 -49.5t-82.5 -125.5l-336 -817q-41 -98 -79.5 -163.5t-78.5 -104.5t-81 -54.5t-84 -15.5q-74 0 -117 43t-43 103q0 47 30 85t87 38 q47 0 81 -34t34 -87q0 -33 -12.5 -59.5t-32.5 -43.5q31 4 61.5 18.5t62 49.5t65.5 94.5t71 153.5l10 28l-14 34q-14 34 -40 90.5t-58 127t-66 144.5q-80 172 -178 393q-18 41 -36 67.5t-38.5 44t-47 27t-63.5 13.5zM252 1278q0 55 35 93t90 38q57 0 92 -38t35 -93 q0 -53 -35 -91t-92 -38q-55 0 -90 38t-35 91zM631 1278q0 55 35.5 93t91.5 38q55 0 91 -38t36 -93q0 -53 -36 -91t-91 -38t-91 38t-36 91z" />
<glyph unicode="&#x152;" horiz-adv-x="2181" d="M98 688q0 141 44 275.5t136.5 237t236.5 164.5t345 62h1151l6 -460l-28 -4q-45 109 -87 189.5t-94.5 132.5t-118 78t-157.5 26h-246v-629h111q63 0 112.5 13t88 46t66.5 87.5t48 135.5h27v-602h-27q-20 82 -48 136.5t-66.5 86t-88 45t-112.5 13.5h-111v-682h242 q109 0 185.5 26.5t136 82t106.5 140.5t94 201l27 -2l-11 -487h-1196q-190 0 -334.5 52t-241.5 144.5t-146.5 218.5t-49.5 273zM367 707q0 -205 36.5 -335t102 -204t156 -100.5t196.5 -26.5q190 0 191 127v1094q0 66 -47.5 96.5t-137.5 30.5q-125 0 -218 -32t-155.5 -110 t-93 -208.5t-30.5 -331.5z" />
<glyph unicode="&#x153;" horiz-adv-x="1705" d="M66 463q0 109 37.5 199t103 154.5t152.5 100t186 35.5q111 0 204 -44t156 -124q61 78 148.5 123t189.5 45q104 0 182 -33.5t128.5 -92t74 -137.5t17.5 -171h-629q-6 -94 11 -178t56 -146.5t102.5 -98.5t149.5 -36q98 0 163 46.5t126 127.5l23 -16q-31 -49 -69 -93 t-86 -77t-108.5 -51.5t-138.5 -18.5q-113 0 -200 44.5t-146 119.5q-66 -78 -158 -121t-196 -43q-102 0 -190.5 35t-153 98.5t-100 152.5t-35.5 200zM303 467q0 -240 65.5 -345.5t184.5 -105.5q115 0 172 105.5t57 345.5t-65.5 344t-181.5 104q-117 0 -174.5 -104t-57.5 -344 zM1018 555h397q16 170 -26.5 265t-157.5 95q-190 0 -213 -360z" />
<glyph unicode="&#x178;" horiz-adv-x="1386" d="M-14 1403v24h659v-24q-76 -4 -118 -17.5t-57 -36t-8 -53t30 -71.5l299 -541l266 465q37 61 51 103t4 72t-48 47.5t-110 29.5v26h473v-24q-51 -8 -92 -24.5t-78.5 -48.5t-75.5 -82t-83 -130l-281 -481v-475q0 -31 9.5 -55.5t35 -41t70.5 -26.5t115 -12v-27h-697v27 q72 2 116 12t69.5 26.5t35 41t9.5 55.5v434l-361 637q-23 41 -45 68.5t-49 47t-59.5 32t-79.5 22.5zM483 1769q0 55 35 93.5t90 38.5q57 0 92 -38t35 -94q0 -53 -34.5 -91t-92.5 -38q-55 0 -90 38t-35 91zM862 1769q0 55 36 93.5t91 38.5t91 -38t36 -94q0 -53 -36 -91 t-91 -38t-91 38t-36 91z" />
<glyph unicode="&#x2c6;" horiz-adv-x="630" d="M35 1087l274 394h27l260 -394h-33l-248 191l-247 -191h-33z" />
<glyph unicode="&#x2dc;" horiz-adv-x="698" d="M25 1096q18 135 64 199.5t134 64.5q37 0 80 -16.5t86 -35t82 -35t68 -16.5t56.5 26t45.5 97h33q-18 -135 -65.5 -199.5t-133.5 -64.5q-37 0 -80 16.5t-86 35t-82 35t-67 16.5q-29 0 -55.5 -26t-47.5 -97h-32z" />
<glyph unicode="&#x2000;" horiz-adv-x="1003" />
<glyph unicode="&#x2001;" horiz-adv-x="2009" />
<glyph unicode="&#x2002;" horiz-adv-x="1003" />
<glyph unicode="&#x2003;" horiz-adv-x="2009" />
<glyph unicode="&#x2004;" horiz-adv-x="669" />
<glyph unicode="&#x2005;" horiz-adv-x="501" />
<glyph unicode="&#x2006;" horiz-adv-x="333" />
<glyph unicode="&#x2007;" horiz-adv-x="333" />
<glyph unicode="&#x2008;" horiz-adv-x="249" />
<glyph unicode="&#x2009;" horiz-adv-x="401" />
<glyph unicode="&#x200a;" horiz-adv-x="110" />
<glyph unicode="&#x2010;" horiz-adv-x="749" d="M113 489v84h524v-84h-524z" />
<glyph unicode="&#x2011;" horiz-adv-x="749" d="M113 489v84h524v-84h-524z" />
<glyph unicode="&#x2012;" horiz-adv-x="749" d="M113 489v84h524v-84h-524z" />
<glyph unicode="&#x2013;" horiz-adv-x="1105" d="M113 516v45h880v-45h-880z" />
<glyph unicode="&#x2014;" horiz-adv-x="1617" d="M113 516v45h1392v-45h-1392z" />
<glyph unicode="&#x2018;" horiz-adv-x="477" d="M88 1085q0 119 83 216.5t245 158.5l14 -24q-113 -55 -172 -135t-68 -144l9 -4q27 16 57 16q51 0 86 -34.5t35 -87.5t-36 -95.5t-95 -42.5q-72 0 -115 49t-43 127z" />
<glyph unicode="&#x2019;" horiz-adv-x="477" d="M45 930q111 55 171 134t69 144l-9 4q-12 -10 -27.5 -13t-31.5 -3q-49 0 -84 34t-35 89q0 53 36 94t93 41q74 0 116 -49t42 -127q0 -119 -82 -215t-244 -158z" />
<glyph unicode="&#x201a;" horiz-adv-x="477" d="M45 -285q111 55 171 134t69 145l-9 4q-25 -18 -59 -18q-49 0 -84 34.5t-35 87.5q0 55 36 96.5t93 41.5q74 0 116 -49.5t42 -127.5q0 -119 -82 -215t-244 -157z" />
<glyph unicode="&#x201c;" horiz-adv-x="860" d="M88 1085q0 119 83 216.5t245 158.5l14 -24q-113 -55 -172 -135t-68 -144l9 -4q27 16 57 16q51 0 86 -34.5t35 -87.5t-36 -95.5t-95 -42.5q-72 0 -115 49t-43 127zM473 1085q0 119 82 216.5t244 158.5l14 -24q-113 -55 -172 -135t-68 -144l9 -4q27 16 57 16q51 0 86 -34.5 t35 -87.5t-36 -95.5t-93 -42.5q-74 0 -116 49t-42 127z" />
<glyph unicode="&#x201d;" horiz-adv-x="860" d="M45 930q111 55 171 134t69 144l-9 4q-12 -10 -27.5 -13t-31.5 -3q-49 0 -84 34t-35 89q0 53 36 94t93 41q74 0 116 -49t42 -127q0 -119 -82 -215t-244 -158zM428 930q113 55 172 134t68 144l-9 4q-12 -10 -27.5 -13t-29.5 -3q-51 0 -86 34t-35 89q0 53 36 94t93 41 q74 0 116 -49t42 -127q0 -119 -82 -215t-244 -158z" />
<glyph unicode="&#x201e;" horiz-adv-x="860" d="M45 -285q111 55 171 134t69 145l-9 4q-25 -18 -59 -18q-49 0 -84 34.5t-35 87.5q0 55 36 96.5t93 41.5q74 0 116 -49.5t42 -127.5q0 -119 -82 -215t-244 -157zM428 -285q113 55 172 134t68 145l-9 4q-25 -18 -57 -18q-51 0 -86 34.5t-35 87.5q0 55 36 96.5t93 41.5 q74 0 116 -49.5t42 -127.5q0 -119 -82 -215t-244 -157z" />
<glyph unicode="&#x2022;" horiz-adv-x="968" d="M215 674q0 55 20.5 104t57.5 85t86 57.5t104 21.5q57 0 106.5 -21.5t86.5 -57.5t57.5 -85t20.5 -104t-20.5 -104.5t-57.5 -85t-86 -57t-107 -21.5q-55 0 -104 21.5t-86 57t-57.5 85t-20.5 104.5z" />
<glyph unicode="&#x2026;" horiz-adv-x="1400" d="M100 102q0 57 40 97.5t100 40.5q59 0 98 -40t39 -96q0 -57 -40 -97t-99 -40t-98.5 40t-39.5 95zM561 102q0 57 41 97.5t100 40.5t98.5 -40t39.5 -96q0 -57 -40 -97t-100 -40q-59 0 -99 40t-40 95zM1024 102q0 57 41 97.5t100 40.5t98.5 -40t39.5 -96q0 -57 -40 -97 t-100 -40q-59 0 -99 40t-40 95z" />
<glyph unicode="&#x202f;" horiz-adv-x="401" />
<glyph unicode="&#x2039;" horiz-adv-x="620" d="M76 461q0 10 6 20.5t35 32.5l383 348l24 -18l-264 -383l264 -387l-24 -17l-383 349q-29 25 -35 35t-6 20z" />
<glyph unicode="&#x203a;" horiz-adv-x="620" d="M96 76l264 383l-264 387l25 16l383 -348q29 -25 35 -35t6 -20t-6.5 -20.5t-34.5 -32.5l-383 -349z" />
<glyph unicode="&#x205f;" horiz-adv-x="501" />
<glyph unicode="&#x2122;" horiz-adv-x="1247" d="M94 1270l6 162h416l6 -162h-22q-25 66 -53.5 101.5t-75.5 35.5h-13v-379q0 -16 15.5 -23.5t62.5 -7.5v-22h-256v22q47 0 62.5 7.5t15.5 23.5v379h-14q-43 0 -72 -36t-55 -101h-23zM571 975v18q47 4 59.5 24.5t12.5 67.5v265q0 25 -14.5 42t-57.5 19v21h193l119 -322h8 l115 322h186v-21q-41 -4 -56.5 -10t-15.5 -23v-350q0 -16 15.5 -22.5t56.5 -8.5v-22h-231v22q37 2 49 8.5t12 22.5v338h-10l-138 -391h-38l-150 391h-10v-281q0 -47 13 -66.5t61 -25.5v-18h-179z" />
<glyph unicode="&#xe000;" horiz-adv-x="940" d="M0 940h940v-940h-940v940z" />
<glyph unicode="&#xfb01;" horiz-adv-x="1271" d="M727 0v25q45 0 74 4t46 12t23.5 23.5t6.5 39.5v703q0 47 -30 73.5t-120 28.5v25l365 12v-842q0 -25 5 -40t21.5 -23t46 -12t76.5 -4v-25h-514zM840 1257q0 63 37 102.5t96 39.5q61 0 97 -37t36 -98t-36 -100.5t-97 -39.5q-59 0 -96 36t-37 97zM33 872v25l176 45v78 q0 129 29.5 216t85.5 144q53 51 118.5 76t143.5 25q135 0 199.5 -50.5t64.5 -115.5q0 -55 -31 -89t-86 -34q-47 0 -86 29.5t-39 103.5q0 18 11.5 46t21.5 44q-14 12 -33.5 20.5t-42.5 8.5q-49 0 -84 -35q-29 -29 -43 -87t-14 -179v-207h260v-64h-260v-768q0 -25 9 -40 t31.5 -23t60.5 -11t93 -5v-25h-555v25q88 2 117 16t29 63v768h-176z" />
<glyph unicode="&#xfb02;" horiz-adv-x="1269" d="M705 1432v24l379 12v-1364q0 -49 27.5 -63t117.5 -16v-25h-506v25q88 2 117 16t29 63v1223q0 27 -5.5 45.5t-22.5 31.5t-50 19.5t-86 8.5zM33 872v25l176 45v78q0 129 29.5 216t85.5 144q53 51 118.5 76t143.5 25q135 0 199.5 -50.5t64.5 -115.5q0 -55 -31 -89t-86 -34 q-47 0 -86 29.5t-39 103.5q0 18 11.5 46t21.5 44q-14 12 -33.5 20.5t-42.5 8.5q-49 0 -84 -35q-29 -29 -43 -87t-14 -179v-207h260v-64h-260v-768q0 -25 9 -40t31.5 -23t60.5 -11t93 -5v-25h-555v25q88 2 117 16t29 63v768h-176z" />
<glyph unicode="&#xfb03;" horiz-adv-x="1945" d="M1401 0v25q45 0 74 4t46 12t23.5 23.5t6.5 39.5v703q0 47 -30 73.5t-120 28.5v25l365 12v-842q0 -25 5 -40t21.5 -23t46 -12t76.5 -4v-25h-514zM1514 1257q0 63 37 102.5t96 39.5q61 0 97 -37t36 -98t-36 -100.5t-97 -39.5q-59 0 -96 36t-37 97zM707 872v25l176 45v78 q0 129 29.5 216t85.5 144q53 51 118.5 76t143.5 25q135 0 199.5 -50.5t64.5 -115.5q0 -55 -31 -89t-86 -34q-47 0 -86 29.5t-39 103.5q0 18 11.5 46t21.5 44q-14 12 -33.5 20.5t-42.5 8.5q-49 0 -84 -35q-29 -29 -43 -87t-14 -179v-207h260v-64h-260v-768q0 -25 9 -40 t31.5 -23t60.5 -11t93 -5v-25h-555v25q88 2 117 16t29 63v768h-176zM33 872v25l176 45v78q0 129 29.5 216t85.5 144q53 51 118.5 76t143.5 25q135 0 199.5 -50.5t64.5 -115.5q0 -55 -31 -89t-86 -34q-47 0 -86 29.5t-39 103.5q0 18 11.5 46t21.5 44q-14 12 -33.5 20.5 t-42.5 8.5q-49 0 -84 -35q-29 -29 -43 -87t-14 -179v-207h260v-64h-260v-768q0 -25 9 -40t31.5 -23t60.5 -11t93 -5v-25h-555v25q88 2 117 16t29 63v768h-176z" />
<glyph unicode="&#xfb04;" horiz-adv-x="1943" d="M1379 1432v24l379 12v-1364q0 -49 27.5 -63t117.5 -16v-25h-506v25q88 2 117 16t29 63v1223q0 27 -5.5 45.5t-22.5 31.5t-50 19.5t-86 8.5zM707 872v25l176 45v78q0 129 29.5 216t85.5 144q53 51 118.5 76t143.5 25q135 0 199.5 -50.5t64.5 -115.5q0 -55 -31 -89t-86 -34 q-47 0 -86 29.5t-39 103.5q0 18 11.5 46t21.5 44q-14 12 -33.5 20.5t-42.5 8.5q-49 0 -84 -35q-29 -29 -43 -87t-14 -179v-207h260v-64h-260v-768q0 -25 9 -40t31.5 -23t60.5 -11t93 -5v-25h-555v25q88 2 117 16t29 63v768h-176zM33 872v25l176 45v78q0 129 29.5 216 t85.5 144q53 51 118.5 76t143.5 25q135 0 199.5 -50.5t64.5 -115.5q0 -55 -31 -89t-86 -34q-47 0 -86 29.5t-39 103.5q0 18 11.5 46t21.5 44q-14 12 -33.5 20.5t-42.5 8.5q-49 0 -84 -35q-29 -29 -43 -87t-14 -179v-207h260v-64h-260v-768q0 -25 9 -40t31.5 -23t60.5 -11 t93 -5v-25h-555v25q88 2 117 16t29 63v768h-176z" />
</font>
</defs>
</svg>
